<?xml version="1.0" encoding="utf-8"?>
<!-- Generator: Adobe Illustrator 21.1.0, SVG Export Plug-In . SVG Version: 6.00 Build 0)  -->
<svg version="1.1" id="Mail" xmlns:sketch="http://www.bohemiancoding.com/sketch/ns"
	 xmlns="http://www.w3.org/2000/svg" xmlns:xlink="http://www.w3.org/1999/xlink" x="0px" y="0px" viewBox="0 0 60 43"
	 style="enable-background:new 0 0 60 43;" xml:space="preserve">
<path id="Fill-211" sketch:type="MSShapeGroup" d="M60,41.7V1.4L39.5,22L60,41.7"/>
<path id="Fill-212" sketch:type="MSShapeGroup" d="M0,1.4v40.3L20.5,22L0,1.4"/>
<path id="Fill-213" sketch:type="MSShapeGroup" d="M1.4,0l21,21.1c0.1,0.1,0.5,0.4,0.5,0.5l5.9,6c0.6,0.6,1.7,0.6,2.3,0l5.9-5.9
	c0-0.1,0.4-0.5,0.5-0.5L58.6,0H1.4"/>
<path id="Fill-214" sketch:type="MSShapeGroup" d="M38.1,23.5L32.6,29c-0.7,0.7-1.7,1-2.6,1c-0.9,0-1.8-0.3-2.5-1l-5.5-5.5L1.6,43
	h56.9L38.1,23.5"/>
</svg>
