<?xml version="1.0" encoding="utf-8"?>
<!-- Generator: Adobe Illustrator 21.1.0, SVG Export Plug-In . SVG Version: 6.00 Build 0)  -->
	<svg version="1.1" id="Brain" xmlns:sketch="http://www.bohemiancoding.com/sketch/ns"
	 xmlns="http://www.w3.org/2000/svg" xmlns:xlink="http://www.w3.org/1999/xlink" x="0px" y="0px" viewBox="0 0 35.8 49.5"
	 style="enable-background:new 0 0 35.8 49.5;" xml:space="preserve">
<style type="text/css">
	.st0{fill:#CC99CC;}
</style>
<path class="st0" d="M8.2,3.5c-0.1,0-0.6,0.3-0.7,0.4C7.5,4,7.4,4,7.4,4S7.3,4,7.3,4.1c0,0-0.2,0.2-0.3,0.3C6.9,4.5,6.8,4.6,6.8,4.6
	S6.7,4.8,6.5,4.9C6.4,5,6.2,5.2,6.2,5.2c0,0.1-0.1,0.3-0.2,0.4S5.7,5.8,5.2,6C5.1,6,5,6.1,4.9,6.2S4.7,6.4,4.6,6.4S4.5,6.5,4.5,6.5
	S4.2,6.8,4.1,6.9C4,7,4,7.1,4,7.1c0,0.1-0.6,1-0.6,1.1C3.2,8.4,3.1,8.5,3.1,8.6S2.9,9.2,2.9,9.3s0,0.3-0.1,0.5c0,0.4-0.5,0.8-0.6,1
	C2,11,1.9,11.2,1.7,11.5c-0.2,0.3-0.2,0.4-0.2,0.4c0,0.1,0,0.1-0.1,0.1s-0.1,0.4-0.2,1.2c0,0.5,0,0.8,0,0.8s0.1,0.2,0.1,0.4
	c0,0.3,0,0.4-0.1,0.4S1.1,14.9,1.1,15s0,0.1-0.1,0.1s-0.1,0.1-0.1,0.2s0,0.2,0,0.2l-0.1,0.1c0,0,0,0.1-0.1,0.1s-0.2,1.4-0.1,2
	C0.7,18.3,1,19,1.1,19.1v0.1c0,0,0.1,0.1,0.1,0.2l0.1,0.2v1.1c0,1.1,0.1,1.6,0.2,1.7l0.1,0.1c0,0.1,0.1,0.5,0.2,0.5c0,0,0,0,0,0.1
	s0.1,0.3,0.2,0.4c0,0,0.1,0.1,0.2,0.3c0.1,0.1,0.3,0.4,0.5,0.6c0.3,0.3,0.4,0.4,0.4,0.7c0.1,0.2,0.1,0.3,0.1,0.3s0.1,0.1,0.1,0.2
	c0,0.1,0.1,0.3,0.2,0.4c0.1,0.1,0.2,0.3,0.2,0.4c0,0.1,0.1,0.2,0.2,0.3c0.1,0.1,0.2,0.2,0.2,0.2c0,0.1,0.5,0.5,0.9,0.8
	c0.2,0.2,0.5,0.4,0.7,0.4c0.1,0,0.1,0.1,0.1,0.1l0.1,0.1c0.1,0,0.1,0,0.2,0.1c0,0,0.1,0.1,0.2,0.1s0.2,0,0.2,0.1
	c0,0,0.1,0.1,0.3,0.1c0.2,0,0.3,0.1,0.3,0.1s0.2,0.1,0.4,0.1c0.3,0,0.4,0,0.4,0.1s0.7,0.9,1,1.1c0.3,0.2,0.9,0.5,1,0.5
	s0.1,0,0.1,0.1l0.1,0.1c0.1,0,0.2,0,0.2,0.1c0.2,0.2,2.1,0.2,3,0.1c0.9-0.1,1-0.1,1.1-0.2l0.1-0.1c0.4,0,1.5-0.9,1.9-1.5
	c0-0.1,0.1-0.2,0.1-0.2s0.2-0.3,0.3-0.5c0-0.1,0.1-0.3,0.2-0.4c0.1-0.2,0.2-0.4,0.2-0.5l0.1-0.2V15.6c0-7.9,0-11.8,0-12
	c0-0.1-0.1-0.3-0.2-0.4C17,3.1,17,2.9,17,2.9s0-0.1-0.1-0.1l-0.1-0.1c0,0,0-0.1-0.1-0.1c0,0-0.1,0-0.1-0.1c0,0-0.1-0.2-0.3-0.4
	C16.2,1.9,16,1.8,16,1.8c0-0.1-0.3-0.2-0.4-0.2c0,0-0.1,0-0.1-0.1s-0.6-0.3-0.7-0.3s-0.2,0-0.2-0.1c0,0-0.4-0.1-0.9-0.1
	s-0.9,0-0.9,0.1c0,0-0.1,0.1-0.2,0.1s-0.2,0-0.3,0.1c0,0-0.2,0.1-0.4,0.1c-0.2,0-0.3,0.1-0.3,0.1s-0.1,0.2-0.4,0.4
	c-0.2,0.2-0.4,0.4-0.4,0.5s0,0.1,0,0.1s-0.1,0.2-0.2,0.3l-0.2,0.3h-0.2c-0.1,0-0.2,0-0.2,0S9.9,3.2,9.7,3.2c-0.2,0-0.3,0-0.3,0.1
	c0,0-0.1,0.1-0.3,0.1s-0.3,0-0.3,0.1c0,0-0.1,0.1-0.3,0.1 M14.5,1.7c0,0,0.2,0.1,0.3,0.1c0.2,0,0.3,0.1,0.3,0.1s0,0.1,0.1,0.1
	c0,0,0.2,0.1,0.3,0.2c0.1,0.1,0.2,0.2,0.3,0.2c0,0,0.1,0.1,0.2,0.1c0.1,0.1,0.2,0.2,0.3,0.3c0.1,0.1,0.2,0.3,0.3,0.4
	c0.1,0.1,0.1,0.2,0.1,0.2c0.1,0,0.1,6.4,0,6.5c0,0-0.1,0.1-0.1,0.3s0,0.2-0.1,0.3c0,0-0.1,0.1-0.1,0.2s-0.1,0.2-0.1,0.4
	c-0.1,0.1-0.1,0.3-0.1,0.4s0,0.1-0.1,0.1c0,0-0.1,0-0.1,0.1s-0.4,0.9-0.5,0.9l-0.1,0.1c0,0.1,0,0.1-0.1,0.1c0,0-0.1,0.1-0.2,0.3
	c-0.1,0.1-0.2,0.3-0.2,0.3l-0.1,0.1c0,0.1-1.3,1.4-1.4,1.4c0,0-0.1,0.1-0.3,0.2c-0.1,0.1-0.3,0.2-0.3,0.2s-0.1,0-0.1,0.1l-0.1,0.1
	c-0.1,0-0.2,0.1-0.4,0.2l-0.3,0.2h-0.5c-0.3,0-0.5,0-0.5-0.1c0,0-0.1-0.1-0.2-0.1s-0.2-0.1-0.4-0.1c-0.6-0.3-1-1.1-1.1-1.9
	c0-0.3,0-0.7,0-0.9v-0.3h0.2c0.1,0,0.2,0,0.2-0.1c0,0,0.1-0.1,0.2-0.1c0.2,0,0.4-0.2,0.4-0.3c0,0-0.1-0.1-0.2-0.1s-0.4,0-0.8,0
	c-0.7,0-0.9,0-1-0.3c-0.1-0.2-0.3-0.3-0.5-0.1c-0.2,0.2-0.1,0.2,0.3,0.6l0.4,0.4v0.4c0,0.2,0.1,0.6,0.1,0.9c0,0.2,0.1,0.5,0.1,0.6
	v0.2H7.7c-0.6,0-0.9,0-1-0.1c0,0-0.2-0.1-0.3-0.1c-0.1,0-0.2,0-0.2-0.1l-0.1-0.1c-0.1,0-0.2-0.1-0.3-0.1C5.7,14,5.6,14,5.6,14
	s-0.1,0-0.1-0.1c0,0,0-0.1-0.1-0.1S4.5,13.1,4.5,13c0,0-0.1-0.1-0.2-0.2c-0.1-0.1-0.2-0.2-0.2-0.3c0,0,0-0.1-0.1-0.1l-0.1-0.1
	c0-0.1,0-0.1-0.1-0.1c0,0-0.1-0.1-0.1-0.3c0.4-0.2,0.4-0.4,0.3-0.5c0-0.1-0.1-0.2-0.1-0.3c0-0.1,0-0.2-0.1-0.2c0,0-0.1-0.4-0.1-1
	s0-1,0.1-1c0,0,0.1-0.1,0.1-0.2s0-0.2,0.1-0.2c0,0,0.1-0.1,0.1-0.2s0-0.2,0.1-0.2c0,0,0.1,0,0.1-0.1c0,0,0.1-0.1,0.1-0.2
	c0.1-0.1,0.1-0.2,0.1-0.2C4.5,7.5,5,7,5.2,6.9c0.1-0.1,0.2-0.1,0.2-0.2l0.1-0.1c0,0,0.1,0,0.1-0.1c0,0,0.1-0.1,0.2-0.1
	s0.3-0.1,0.3-0.1c0.1,0,0.2-0.1,0.2-0.1c0.1,0,0.3-0.2,0.3-0.3c0-0.1,0-0.1,0.1-0.1l0.1-0.1c0,0,0-0.1,0.1-0.1S7,5.5,7.1,5.4
	C7.3,5,8.3,4.2,8.5,4.2c0,0,0.2-0.1,0.3-0.1C8.9,4,9.1,4,9.1,4c0.1,0,0.1,0,0.2-0.1c0,0,0.3-0.1,0.6-0.1h0.6v0.4
	c0.1,0.9,0.1,1.1,0.2,1.2c0,0,0.1,0.1,0.1,0.2c0,0.3,0.9,1.5,1.2,1.5c0,0,0.1,0,0.1,0.1s0.7,0.5,0.9,0.5c0.1,0,0.1,0,0.2,0.1
	C13.4,7.9,13.8,8,14,8c0.2,0,0.2,0,0.2,0.1s0,0.1,0.1,0.1l0.1,0.1c0,0.1,0,0.1,0.1,0.1l0.1,0.1c0.2,0.3,0.5,0.3,0.5,0
	c0-0.1,0-0.2-0.1-0.2c0,0-0.1-0.1-0.1-0.2s0-0.2-0.1-0.2c-0.1-0.1-0.1-0.9,0-1.2l0.1-0.3l-0.1-0.2C14.7,6,14.5,6,14.4,6.1
	s-0.2,0.5-0.2,0.7V7H14c-0.1,0-0.2,0-0.2-0.1c0,0-0.1-0.1-0.2-0.1c-0.2,0-0.7-0.1-0.7-0.2l-0.1-0.1c0,0-0.1,0-0.1-0.1
	c0,0,0-0.1-0.1-0.1c0,0-0.1,0-0.1-0.1S12.3,6,12.2,5.8c-0.3-0.3-0.6-0.8-0.6-1c0-0.1,0-0.1-0.1-0.2c0,0-0.1-0.3-0.1-0.6
	s0-0.6,0.1-0.6c0,0,0.1-0.1,0.1-0.2c0-0.1,0-0.2,0.1-0.2c0,0,0.1,0,0.1-0.1s0.3-0.6,0.4-0.7c0.1-0.1,0.1-0.1,0.1-0.2
	c0,0,0-0.1,0.1-0.2c0.1-0.1,0.9-0.5,1-0.5s0.1,0,0.1-0.1c0,0,0.1-0.1,0.2-0.1s0.2,0,0.2-0.1C13.5,1.6,14.5,1.6,14.5,1.7z M3.1,11.3
	c0.1,0.1,0.1,0.2,0.1,0.3s0,0.2,0.1,0.2l0.1,0.1c0,0.1,0,0.1,0.1,0.1l0.1,0.1c0,0.1,0,0.1,0.1,0.1l0.1,0.1c0,0.1,0,0.1,0.1,0.1
	L4,12.5l0.1,0.2c0.1,0.1,0.1,0.1,0.1,0.2s0.1,0.2,0.2,0.3c0.1,0.1,0.2,0.2,0.2,0.3c0,0.1,0.3,0.4,0.4,0.4c0,0,0.2,0.1,0.3,0.3
	c0.1,0.1,0.3,0.3,0.3,0.3s0.1,0.1,0.2,0.1c0.1,0.1,0.2,0.1,0.3,0.1c0.1,0,0.2,0,0.2,0.1l0.1,0.1c0,0,0.1,0,0.1,0.1
	c0,0,0.1,0.1,0.2,0.1s0.2,0,0.2,0.1c0,0,0.1,0.1,0.2,0.1s0.2,0,0.2,0.1c0,0,0.5,0.1,1.3,0.1h1.3v0.1c0,0.1,0.3,0.4,0.4,0.4
	s0.4,0.4,0.4,0.4v0.1v0.1h-0.5H9.7l-0.2,0.2c-0.1,0.1-0.2,0.2-0.2,0.3l0.1,0.1c0,0.1,0,0.1,0.1,0.1s0.1,0,0.1,0.1s0.2,0.1,0.4,0.1
	c0.2,0,0.4,0,0.4-0.1s0.1-0.1,0.3-0.1c0.2,0,0.3,0,0.3-0.1c0,0,0.1-0.1,0.3-0.1s0.3,0,0.3-0.1c0,0,0.1-0.1,0.2-0.1s0.2,0,0.2-0.1
	c0,0,0.1-0.1,0.2-0.1s0.2,0,0.2-0.1l0.1-0.1c0,0,0.1,0,0.1-0.1c0,0,0.1-0.1,0.2-0.1s0.2,0,0.2-0.1l0.1-0.1c0,0,0.1,0,0.1-0.1
	l0.1-0.1c0.1,0,0.2-0.1,0.2-0.1c0.1-0.1,0.1-0.1,0.2-0.1s0.1-0.1,0.2-0.1c0.1-0.1,0.1-0.1,0.2-0.1s0.1-0.1,0.2-0.1
	c0.1-0.1,0.1-0.1,0.2-0.1s0.2-0.1,0.3-0.3s0.3-0.3,0.3-0.3c0.1,0,0.6-0.6,0.6-0.7s0.1-0.1,0.1-0.1c0.1,0,0.1,0,0.1-0.1
	s0.1-0.2,0.2-0.3c0.1-0.1,0.2-0.2,0.2-0.3c0,0,0.1-0.2,0.2-0.3c0.1-0.1,0.2-0.2,0.2-0.3c0-0.1,0.2-0.3,0.3-0.3h0.1v7.1
	c0,4.7,0,7.1-0.1,7.1c0,0-0.1,0.1-0.1,0.2c0,0.1,0,0.2-0.1,0.2L16.7,27c0,0,0,0.1-0.1,0.1l-0.1,0.1c0,0.1,0,0.1-0.1,0.1l-0.1,0.1
	c0,0,0,0.1-0.1,0.1l-0.1,0.1L16,27.8c0,0-0.1,0.1-0.1,0.2c0,0.1-0.8,0.9-0.9,0.9c0,0-0.1,0.1-0.2,0.1c-0.1,0.1-0.1,0.1-0.2,0.1
	s-0.1,0-0.1,0.1l-0.1,0.1c-0.1,0-0.1,0-0.1,0.1c0,0-0.1,0.1-0.2,0.1s-0.2,0-0.2,0.1c0,0-0.1,0.1-0.3,0.1s-0.3,0-0.3,0.1
	c0,0-0.2,0.1-0.6,0.1c-0.3,0-0.6,0-0.6-0.1c0,0-0.2-0.1-0.4-0.1s-0.4,0-0.4-0.1s-0.1-0.1-0.3-0.1s-0.3,0-0.3-0.1
	c0,0-0.1-0.1-0.2-0.1s-0.2,0-0.2-0.1l-0.1-0.1c0,0-0.1,0-0.1-0.1L10,28.9c-0.1,0-0.1,0-0.1-0.1l-0.1-0.1c0,0-0.1,0-0.1-0.1
	c0,0,0-0.1-0.1-0.1s-0.2-0.1-0.3-0.3C9.2,28.1,9,27.9,9,27.9c-0.1,0-0.1,0-0.1-0.1s-0.1-0.2-0.2-0.3s-0.2-0.2-0.2-0.3
	c0,0-0.1-0.1-0.1-0.2s-0.1-0.1-0.1-0.2c0-0.1,0-0.1-0.1-0.1c0,0-0.1-0.1-0.1-0.2c0-0.1,0-0.2-0.1-0.2c0,0-0.1-0.1-0.1-0.2
	c0-0.1,0-0.2-0.1-0.2c0,0-0.1-0.1-0.1-0.3s0-0.3-0.1-0.3S7.5,25,7.5,24.7c0-0.4,0-0.6,0.1-0.6s0.1-0.1,0.1-0.3c0-0.1,0-0.3,0.1-0.3
	c0,0,0.1-0.1,0.1-0.3s0-0.3,0.1-0.3l0.1-0.1c0-0.1,0-0.1,0.1-0.1l0.1-0.1c0-0.1,0.1-0.2,0.1-0.2s0.1-0.1,0.1-0.2
	c0,0,0.1-0.2,0.3-0.4c0.2-0.2,0.3-0.4,0.3-0.5c0-0.3-0.1-0.4-0.4-0.4c-0.2,0-0.5,0.2-0.5,0.4c0,0-0.1,0.2-0.2,0.3s-0.2,0.2-0.2,0.3
	s0,0.1-0.1,0.1l-0.1,0.1c0,0,0,0.1-0.1,0.1l-0.1,0.1c0,0,0,0.1-0.1,0.1l-0.1,0.1c0,0,0,0.1-0.1,0.1c0,0-0.1,0.1-0.1,0.2
	C7,22.9,7,23,6.9,23c0,0-0.1,0.1-0.1,0.2c0,0.1,0,0.2-0.1,0.2c0,0-0.1,0.2-0.1,0.4c0,0.3,0,0.4-0.1,0.4c0,0-0.1,0.1-0.1,0.3
	c0,0.1,0,0.3,0.1,0.3c0,0,0.1,0.2,0.1,0.4s0,0.4,0.1,0.4c0,0,0.1,0.1,0.1,0.3c0,0.1,0,0.3,0.1,0.3c0,0,0.1,0.1,0.1,0.3v0.3H6.7
	c-0.2,0-0.3,0-0.3-0.1l-0.1-0.1c0,0-0.1,0-0.1-0.1l-0.1-0.1c-0.1,0-0.2-0.1-0.2-0.1c-0.1-0.1-0.1-0.1-0.2-0.1S4.5,25.1,4.5,25
	c0,0-0.1-0.1-0.1-0.2s-0.1-0.1-0.1-0.2s0-0.1-0.1-0.1l-0.1-0.1c0,0,0-0.1-0.1-0.1l-0.1-0.1c0,0,0-0.1-0.1-0.1L3.7,24
	c0,0,0-0.1-0.1-0.1l-0.1-0.1c0-0.1,0-0.1-0.1-0.1c0,0-0.1-0.1-0.1-0.2c0-0.1-0.1-0.3-0.4-0.6c-0.2-0.2-0.4-0.5-0.4-0.5
	c0-0.1-0.1-0.1-0.1-0.2c-0.1-0.1-0.1-0.1-0.1-0.2s0-0.1-0.1-0.1l-0.1-0.1c0,0,0-0.1-0.1-0.1l-0.1-0.1c0,0,0-0.1-0.1-0.1
	c0,0-0.1-0.1-0.1-0.2s0-0.2-0.1-0.2c0,0-0.1-0.1-0.1-0.3c0-0.1,0-0.3-0.1-0.3c0,0-0.1-0.2-0.1-0.4v0.4h0.1c0.1,0,0.1,0,0.1,0.1
	c0,0,0.1,0.1,0.2,0.1c0.1,0,0.2,0,0.2,0.1L2,20.9c0.1,0,0.1,0,0.1,0.1c0,0,0.1,0.1,0.2,0.1c0.1,0,0.2,0,0.2,0.1l0.1,0.1
	c0,0,0.1,0,0.1,0.1c0,0,0.1,0.1,0.3,0.1c0.1,0,0.3,0,0.3,0.1c0,0,0.2,0.1,0.4,0.1s0.4,0,0.4,0.1c0,0,0.1,0.1,0.3,0.1s0.3,0,0.3-0.1
	c0,0,0.1-0.1,0.3-0.1c0.2,0,0.3,0,0.3-0.1c0,0,0.1-0.1,0.2-0.1s0.2,0,0.2-0.1c0,0,0.1-0.1,0.2-0.1s0.2,0,0.2-0.1l0.1-0.1
	c0,0,0.1,0,0.1-0.1l0.1-0.1c0.1,0,0.2-0.1,0.2-0.1c0.1-0.1,0.1-0.1,0.2-0.1s0.1,0.1,0.2,0.1c0.1,0.1,0.1,0.1,0.2,0.1S7.3,21,7.4,21
	c0.1,0.1,0.1,0.1,0.2,0.1s0.1,0,0.1,0.1c0,0,0.1,0.1,0.2,0.1s0.2,0,0.2,0.1l0.1,0.1c0,0,0.1,0,0.1,0.1c0,0,0.1,0.1,0.2,0.1
	s0.2,0,0.2,0.1c0,0,0.3,0.1,0.8,0.1s0.8,0,0.8-0.1c0,0,0.1-0.1,0.3-0.1c0.1,0,0.3,0,0.3-0.1l0.1-0.1c0,0,0.1,0,0.1-0.1l0.1-0.1
	c0,0,0.1,0,0.1-0.1l0.1-0.1c0.1,0,0.1,0,0.1,0.1l0.1,0.1l0.2,0.1c0.1,0.1,0.2,0.1,0.3,0.1c0.1,0,0.2,0,0.2,0c0-0.1-0.2-0.2-0.3-0.2
	c0,0-0.2-0.1-0.3-0.3l-0.3-0.3v-0.6c0-0.6-0.1-0.8-0.3-0.8h1v0.5c0,0.3,0,0.5-0.1,0.5c0,0-0.1,0-0.1,0.1s-0.2,0.3-0.3,0.3
	c-0.1,0-0.2,0-0.2,0.1c0,0-0.1,0.1-0.3,0.1s-0.3,0-0.3,0.1c0,0-0.2,0.1-0.6,0.1c-0.3,0-0.6,0-0.6-0.1c0,0-0.1-0.1-0.2-0.1
	s-0.2,0-0.2-0.1c0,0-0.1-0.1-0.2-0.1s-0.2,0-0.2-0.1l-0.1-0.1c0,0-0.1,0-0.1-0.1c0,0,0-0.1-0.1-0.1S8.2,20.1,8,19.9l-0.4-0.4
	l-0.2,0.3C7.2,20,7.1,20.1,7,20.1s-0.2,0.1-0.2,0.1c-0.1,0.1-0.2,0.1-0.3,0.1c-0.1,0-0.2,0-0.2,0.1c0,0-0.1,0.1-0.2,0.1
	s-0.2,0-0.2,0.1s-0.4,0.1-1,0.1s-1,0-1-0.1s0.2-0.1,0.1-0.1s-0.1,0-0.1-0.1c0,0-0.1-0.1-0.2-0.1c-0.1,0-0.2,0-0.2-0.1l-0.1-0.1
	c-0.1,0-0.1,0-0.1-0.1l-0.1-0.1c-0.1,0-0.1,0-0.1-0.1c0,0,0-0.1-0.1-0.1s-1-0.9-1-1.1c0-0.1,0-0.1-0.1-0.1c0,0-0.1-0.1-0.1-0.2
	s0-0.2-0.1-0.2c0,0-0.1-0.4-0.1-1s0-1,0.1-1L1.8,16c0-0.1,0-0.1,0.1-0.1L2,15.8c0-0.1,0-0.1,0.1-0.1l0.1-0.1c0-0.1,0-0.1,0.1-0.1
	l0.1-0.1c-0.3,0.1-0.3,0.1-0.3,0.1l0.1-0.1c0,0,0-0.1,0.1-0.1c0,0,0.1-0.1,0.1-0.3c0-0.1,0-0.3-0.1-0.3c0,0-0.1-0.1-0.1-0.3
	s0-0.3-0.1-0.3c0,0-0.1-0.3-0.1-0.8s0.1-0.8,0.1-0.8s0.1-0.1,0.1-0.2s0-0.2,0.1-0.2L2.4,12c0-0.1,0.1-0.2,0.1-0.2
	c0.1-0.1,0.1-0.1,0.1-0.2s0.3-0.4,0.4-0.4C3,11.2,3.1,11.3,3.1,11.3z"/>
<path class="st0" d="M23.4,1.2l-0.1-0.1c-0.2,0-0.5-0.1-0.5-0.1s-0.1-0.1-0.2-0.1s-0.2,0-0.3-0.1c0,0-0.4-0.1-1-0.1
	c-0.6,0-0.9,0-0.9,0.1l-0.1,0.1c0,0-0.2,0-0.2,0.1c-0.1,0-0.2,0.1-0.3,0.1c-0.1,0.1-0.2,0.1-0.3,0.2c-0.1,0.1-0.2,0.1-0.2,0.1
	s-0.1,0.1-0.2,0.1S19,1.6,18.9,1.6s-0.1,0-0.1,0.1s-0.1,0.2-0.1,0.2l-0.1,0.2c0,0,0,0.1-0.1,0.1c0,0-0.1,0-0.1,0.1s-0.1,0.3-0.2,0.4
	c0,0-0.1,0.1-0.1,0.3L18,3.2v11.7v11.7l0.1,0.4c0.1,0.4,0.2,0.6,0.5,1.3c0.3,0.6,0.3,0.7,0.5,0.9c0.1,0.1,0.2,0.3,0.3,0.3
	c0.1,0.1,0.1,0.1,0.2,0.1c0,0,0.1,0.1,0.2,0.2c0.2,0.2,0.7,0.4,1.1,0.5c0.1,0,0.3,0.1,0.4,0.1c0.6,0.2,2.6,0.2,3.2,0.1
	c0.2,0,0.4-0.1,0.6-0.1c0.1,0,0.2-0.1,0.2-0.1l0.1-0.1c0.1,0,0.5-0.1,0.5-0.2H26c0,0,0.1,0,0.1-0.1c0,0,0-0.1,0.1-0.1
	s0.9-0.8,1.1-1.1c0.1-0.1,0.2-0.2,0.2-0.2c0.2,0,1.2-0.3,1.3-0.3c0,0,0.1-0.1,0.2-0.1c0.1,0,0.5-0.2,0.8-0.4
	c0.1-0.1,0.2-0.1,0.2-0.1s0.1,0,0.1-0.1s0.1-0.1,0.2-0.2c0.1-0.1,0.3-0.2,0.5-0.4c0.3-0.3,0.9-1.1,0.9-1.3c0,0,0-0.1,0.1-0.1
	c0,0,0.1-0.1,0.1-0.2c0.2-0.4,0.2-0.5,0.3-0.6c0-0.1,0.1-0.2,0.1-0.3s0.2-0.3,0.5-0.6c0.6-0.6,1-1.4,1.2-2.1c0.1-0.4,0.2-1.6,0.1-2
	v-0.4l0.2-0.3c0.1-0.2,0.2-0.3,0.2-0.4s0.2-0.5,0.3-0.6s0.2-1.8,0.1-2.5c0-0.2-0.1-0.4-0.2-0.4c-0.1-0.1-0.2-0.2-0.3-0.4
	c-0.1-0.2-0.2-0.3-0.2-0.3c-0.1,0-0.2-0.3-0.1-0.4c0,0,0.1-0.1,0.1-0.2s0-0.2,0.1-0.2c0,0,0.1-0.3,0.1-0.9c0-0.5,0-0.9-0.1-0.9
	c0,0-0.1-0.1-0.1-0.2s-0.6-1.3-0.7-1.4c-0.1-0.1-0.4-0.3-0.5-0.4l-0.2-0.2V9.3c0-0.5-0.2-1.2-0.5-1.7c0-0.1-0.1-0.2-0.1-0.2
	c0-0.1,0-0.1-0.1-0.1c0,0-0.1-0.1-0.1-0.2c-0.1-0.1-0.1-0.2-0.2-0.3c-0.1-0.1-0.1-0.1-0.1-0.2c0-0.2-1.2-1.2-1.4-1.2
	c-0.1,0-0.1,0-0.1-0.1c0,0,0-0.1-0.1-0.1c-0.2,0-0.4-0.2-0.5-0.3c0-0.1-0.1-0.2-0.1-0.2s-0.1,0-0.1-0.1s-0.1-0.1-0.1-0.2
	s-0.1-0.2-0.1-0.2c0-0.1-0.5-0.6-0.7-0.6c0,0-0.1-0.1-0.2-0.1c-0.1-0.1-0.2-0.1-0.2-0.1S28,3.4,28,3.3c0,0,0-0.1-0.1-0.1
	s-0.1-0.1-0.1-0.1c-0.2,0.4-0.3,0.4-0.5,0.4c-0.1,0-0.2,0-0.2,0S27,3.4,26.9,3.4c-0.1,0-0.2,0-0.2-0.1c0,0-0.1-0.1-0.3-0.1
	s-0.2,0-0.3-0.1c0,0-0.2-0.1-0.3-0.1c-0.2,0-0.3,0-0.3-0.1c0,0-0.1-0.1-0.3-0.1c-0.1,0-0.2,0-0.2-0.1c0,0-0.1-0.1-0.3-0.1h-0.3V2.5
	c0-0.1,0-0.1-0.1-0.1l-0.1-0.1c0,0,0-0.1-0.1-0.1S24,2.1,24,2.1c0-0.1-0.1-0.2-0.2-0.3 M22.2,1.7c0,0,0.1,0.1,0.2,0.1
	c0.1,0,0.2,0,0.2,0.1c0,0,0.1,0.1,0.2,0.1C22.9,2,23,2,23,2.1c0,0,0,0.1,0.1,0.1s0.8,0.7,0.8,0.8s0,0.1,0.1,0.1l0.1,0.1l0.1,0.2
	c0.1,0.1,0.1,0.2,0.1,0.3s0,0.2,0.1,0.2c0,0,0.1,0.3,0.1,0.8s0,0.8-0.1,0.8c0,0-0.1,0.1-0.1,0.2s0,0.2-0.1,0.2c0,0-0.1,0-0.1,0.1
	s-0.9,1.1-1,1.1S23,7.1,23,7.2l-0.1,0.1c0,0-0.1,0-0.1,0.1c0,0-0.1,0.1-0.2,0.1c-0.1,0-0.2,0-0.2,0.1S22.2,7.7,22,7.7h-0.4V7.5
	c0-0.1,0-0.2-0.1-0.2c0,0-0.1-0.1-0.1-0.2c0-0.2-0.1-0.3-0.3-0.3h-0.2V7c0,0.1,0,0.2,0.1,0.2c0,0,0.1,0.1,0.1,0.2s0,0.2,0.1,0.2
	c0,0,0.1,0.2,0.1,0.4c0,0.2,0,0.4-0.1,0.4c0,0-0.1,0.1-0.1,0.2s0,0.2-0.1,0.2c0,0-0.1,0.1-0.1,0.3c0,0.2,0,0.3,0,0.3
	c0.1,0,0.3-0.3,0.3-0.4s0-0.1,0.1-0.1c0,0,0.1,0,0.1-0.1s0.2-0.3,0.3-0.3s0.1,0,0.1-0.1c0,0,0.1-0.1,0.3-0.1c0.1,0,0.3,0,0.3-0.1
	c0,0,0.1-0.1,0.3-0.1S23,8.1,23,8l0.1-0.1c0,0,0.1,0,0.1-0.1l0.1-0.1c0.1,0,0.2-0.1,0.2-0.1c0.1-0.1,0.1-0.1,0.2-0.1
	c0.1,0,0.2-0.1,0.3-0.2s0.2-0.2,0.3-0.2s0.3-0.2,0.3-0.3c0-0.1,0.1-0.1,0.1-0.2c0.1-0.1,0.1-0.1,0.1-0.2s0-0.1,0.1-0.1L25,6.2
	c0-0.1,0-0.1,0.1-0.1c0,0,0.1-0.1,0.1-0.3c0-0.1,0-0.3,0.1-0.3c0,0,0.1-0.2,0.1-0.4s0-0.4,0.1-0.4c0,0,0.1-0.1,0.1-0.3V4.1H26
	c0.2,0,0.4,0,0.4,0.1c0,0,0.1,0.1,0.3,0.1s0.3,0,0.3,0.1c0,0,0.1,0.1,0.2,0.1c0.1,0,0.2,0,0.2,0.1l0.1,0.1c0,0,0.1,0,0.1,0.1
	c0,0,0,0.1,0.1,0.1S27.9,5,28,5.1c0.1,0.1,0.2,0.2,0.2,0.2c0.1,0,0.6,0.6,0.6,0.7c0,0,0.1,0.1,0.1,0.2C29,6.3,29,6.3,29,6.4
	s0,0.1,0.1,0.1c0,0,0.1,0,0.1,0.1c0,0.2,0.3,0.4,0.5,0.4c0.1,0,0.2,0,0.2,0.1c0,0,0.1,0.1,0.2,0.1c0.1,0,0.2,0.1,0.3,0.1
	c0.1,0.1,0.1,0.1,0.2,0.1c0.1,0,0.1,0.1,0.2,0.1c0.1,0.1,0.1,0.1,0.2,0.1c0.1,0,0.1,0,0.1,0.1s0,0.1,0.1,0.1s0.1,0,0.1,0.1
	s0.1,0.2,0.2,0.3c0.1,0.1,0.2,0.2,0.2,0.3s0,0.1,0.1,0.1l0.1,0.1c0,0,0,0.1,0.1,0.1c0,0,0.1,0.1,0.1,0.2s0,0.2,0.1,0.2
	c0,0,0.1,0.1,0.1,0.3c0,0.2,0,0.3,0.1,0.3c0,0,0.1,0.3,0.1,0.6c0,0.4-0.1,0.8-0.1,1s-0.1,0.4-0.1,0.5s-0.1,0.3-0.1,0.4
	s-0.1,0.3-0.1,0.3c0,0.1-0.1,0.2-0.1,0.2c0,0.1-0.1,0.2-0.1,0.2c-0.1,0.1-0.3,0.4-0.3,0.4c0,0.1-0.5,0.7-0.6,0.7
	c0,0-0.2,0.1-0.2,0.2c-0.1,0.1-0.2,0.2-0.3,0.2s-0.1,0-0.1,0.1c0,0-0.1,0.1-0.2,0.1c-0.1,0-0.2,0-0.2,0.1l-0.1,0.1
	c0,0-0.1,0-0.1,0.1s-1.2-0.5-1.5-0.5s-0.5,0-0.5,0.1c0,0-0.2,0.1-0.4,0.1s-0.4,0-0.4-0.1c0,0-0.1-0.1-0.3-0.1h-0.3v-0.3
	c0-0.1,0-0.3,0.1-0.3c0,0,0.1-0.2,0.1-0.5s0-0.5,0.1-0.5c0,0,0.1-0.2,0.1-0.4c0-0.3,0-0.4,0.1-0.4s0.2-0.1,0.3-0.2s0.2-0.3,0.2-0.3
	c0-0.1,0-0.1,0.1-0.1c0,0,0.1,0,0.1-0.1c0,0-0.1-0.1-0.2-0.1h-0.3l-0.2,0.3l-0.2,0.3h-0.5c-0.3,0-0.5,0-0.5-0.1c0,0-0.1-0.1-0.3-0.1
	s-0.3,0-0.3,0s0.1,0.1,0.2,0.2c0.1,0.1,0.2,0.2,0.4,0.2c0.1,0,0.2,0,0.2,0.1l0.1,0.1h0.1v0.8c0,0.5,0,0.8-0.1,0.8
	c0,0-0.1,0.1-0.1,0.2s0,0.2-0.1,0.2c0,0-0.1,0.1-0.1,0.2s-0.1,0.2-0.1,0.3c-0.1,0.1-0.1,0.1-0.1,0.2s-0.3,0.4-0.4,0.4
	c-0.1,0-0.1,0.1-0.2,0.1c-0.1,0.1-0.2,0.1-0.3,0.1s-0.2,0-0.2,0.1c0,0-0.1,0.1-0.3,0.1s-0.3,0-0.3,0.1c0,0-0.1,0.1-0.3,0.1
	s-0.3,0-0.3-0.1l-0.1-0.1c0,0-0.1,0-0.1-0.1c0,0-0.1-0.1-0.2-0.1c-0.1,0-0.2-0.1-0.3-0.1c-0.1-0.1-0.1-0.1-0.2-0.1
	c-0.1,0-0.1-0.1-0.2-0.1c-0.1-0.1-0.1-0.1-0.2-0.1s-0.2-0.1-0.3-0.3c-0.1-0.1-0.3-0.3-0.3-0.3c-0.1,0-0.1-0.1-0.1-0.1
	c0-0.1,0-0.1-0.1-0.1c-0.1,0-0.1,0-0.1-0.1s0-0.1-0.1-0.1s-0.1,0-0.1-0.1s-0.1-0.2-0.3-0.3c-0.1-0.1-0.3-0.3-0.3-0.3
	s-0.1-0.1-0.1-0.2S20,13.2,20,13.1s-0.1-0.1-0.1-0.2c-0.1-0.1-0.1-0.1-0.1-0.2s0-0.1-0.1-0.1l-0.1-0.1c0-0.1,0-0.1-0.1-0.1l-0.1-0.1
	c0-0.1,0-0.1-0.1-0.1l-0.1-0.1c0-0.1,0-0.1-0.1-0.1c0,0-0.1-0.1-0.1-0.2s0-0.2-0.1-0.2l-0.1-0.1c0-0.1,0-0.1-0.1-0.1l-0.1-0.1
	c0-0.1,0-0.1-0.1-0.1c0,0-0.1-0.1-0.1-0.3c0-0.1,0-0.3-0.1-0.3c0,0-0.1-1.2-0.1-3.3s0-3.3,0.1-3.3l0.1-0.1c0,0,0-0.1,0.1-0.1
	c0,0,0.1,0,0.1-0.1s0.8-0.9,0.9-0.9c0,0,0.1-0.1,0.2-0.1c0.1-0.1,0.2-0.1,0.3-0.1c0.1,0,0.2,0,0.2-0.1l0.1-0.1c0,0,0.1,0,0.1-0.1
	c0,0,0.3-0.1,0.7-0.1C21.9,1.6,22.2,1.6,22.2,1.7z M32.8,11.6c0.2,0.3,0.5,0.7,0.5,0.9c0,0.1,0,0.2,0.1,0.2c0.1,0.1,0,1.7-0.1,1.9
	c-0.1,0.2-0.1,0.5,0,0.7c0.1,0.1,0.1,0.2,0.2,0.2v0.1c0,0.1,0,0.1,0.1,0.1l0.1,0.1c0,0.1,0,0.1,0.1,0.1c0,0,0.1,0,0.1,0.1
	s0,0.1,0.1,0.2c0,0.1,0.1,0.2,0.1,0.3c0.1,0.3,0.1,1.8,0,1.8c0,0-0.1,0-0.1,0.1s-0.2,0.4-0.2,0.4s-0.1,0-0.1,0.1s-0.5,0.7-0.6,0.7
	c0,0-0.2,0.1-0.3,0.2S32.5,20,32.4,20c-0.1,0-0.1,0-0.1,0.1s-0.1,0.1-0.1,0.1c-0.1,0-0.2,0.1-0.4,0.1c-0.3,0.2-0.5,0.2-0.6,0.2
	s-0.2,0-0.2,0.1c0,0-0.3,0.1-0.7,0.1c-0.3,0-0.6,0-0.7-0.1s-0.1-0.1-0.2-0.1s-0.3,0-0.3-0.1c0,0-0.1-0.1-0.2-0.1
	c-0.1,0-0.2,0-0.2-0.1c0,0-0.1-0.1-0.2-0.1c-0.1,0-0.1,0-0.1-0.1c0,0,0-0.1-0.1-0.1s-0.2-0.1-0.4-0.3c-0.2-0.1-0.3-0.3-0.3-0.3
	s-0.2,0.1-0.3,0.2c-0.5,0.5-0.7,0.6-1.4,0.9c-0.2,0.1-1.7,0.1-1.8,0c0,0-0.1-0.1-0.2-0.1c-0.1,0-0.2,0-0.3-0.1l-0.2-0.1v-0.5
	c0-0.6-0.1-0.7-0.3-0.7h-0.2v0.6v1l-0.4,0.4c-0.2,0.2-0.4,0.4-0.4,0.5c0,0,0.1,0,0.3,0h0.3l0.2-0.2c0.1-0.1,0.2-0.2,0.2-0.1l0.1,0.1
	c0,0,0.1,0,0.2,0.1c0.1,0,0.2,0.1,0.3,0.1s0.2,0.1,0.3,0.1s0.2,0.1,0.4,0.1s0.3,0,0.3,0.1c0,0,0.2,0.1,0.3,0.1c0.2,0,0.3,0,0.3-0.1
	c0,0,0.1-0.1,0.3-0.1c0.3,0,0.6-0.1,0.9-0.3c0.1-0.1,0.3-0.1,0.3-0.1s0.1,0,0.1-0.1c0,0,0.1-0.1,0.2-0.1c0.1-0.1,0.2-0.1,0.3-0.2
	c0.2-0.2,0.4-0.2,0.6,0c0.1,0.1,0.2,0.2,0.3,0.2s0.1,0,0.1,0.1c0,0,0.1,0.1,0.2,0.1c0.1,0,0.1,0,0.1,0.1c0,0,0.1,0.1,0.2,0.1
	c0.1,0,0.2,0,0.3,0.1c0.4,0.2,1.2,0.3,2,0.1c0.2,0,0.4-0.1,0.5-0.1s0.2-0.1,0.2-0.1l0.1-0.1c0.1,0,0.1,0,0.2-0.1
	c0,0,0.1-0.1,0.2-0.1c0.1,0,0.2,0,0.2-0.1c0,0,0-0.1,0.1-0.1s0.4-0.1,0.4-0.2c0.1-0.1,0.1,0.1,0.1,0.6c0,0.3,0,0.6-0.1,0.8
	c-0.1,0.3-0.2,0.5-0.3,0.6c0,0.1-0.1,0.2-0.2,0.4c-0.1,0.1-0.2,0.3-0.3,0.4c-0.1,0.1-0.2,0.2-0.2,0.2s-0.1,0.2-0.3,0.4
	s-0.3,0.3-0.3,0.4c0,0,0,0.1-0.1,0.2c0,0.1-0.1,0.2-0.1,0.3s-0.1,0.2-0.1,0.2s0,0.1-0.1,0.1L31,25.4c0,0,0,0.1-0.1,0.1l-0.1,0.1
	c-0.1,0.2-0.2,0.5-0.4,0.7c-0.1,0.1-0.2,0.2-0.2,0.3s-0.8,0.8-0.8,0.8s-0.1,0-0.1,0.1c-0.1,0.1-0.6,0.4-0.8,0.4
	c-0.1,0-0.1,0-0.2,0.1c0,0-0.1,0.1-0.2,0.1l0,0v-0.2c0-0.1,0-0.2,0.1-0.3c0,0,0.1-0.1,0.1-0.2c0-0.1,0-0.2,0.1-0.2
	c0.1-0.1,0.2-1.7,0.1-2.2c-0.1-0.7-0.4-1.4-0.8-1.9c-0.1-0.1-0.2-0.3-0.2-0.3s-0.1-0.2-0.3-0.3c-0.2-0.2-0.3-0.3-0.5-0.3
	s-0.4,0.1-0.4,0.3c0,0.1,0,0.1-0.1,0.1s-0.1,0.2,0.2,0.4c0.1,0.1,0.3,0.2,0.3,0.2s0.1,0,0.1,0.1c0,0,0.1,0.2,0.2,0.3
	c0.1,0.1,0.2,0.3,0.2,0.3s0.1,0.2,0.1,0.3s0.1,0.3,0.1,0.4c0,0.1,0,0.1,0.1,0.2c0.1,0,0.1,0.7,0.2,1.1c0,0.4-0.1,1.2-0.2,1.3
	c0,0-0.1,0.1-0.1,0.2c0,0.1,0,0.2-0.1,0.3c0,0.1-0.1,0.3-0.2,0.4c-0.1,0.2-0.2,0.4-0.3,0.4c-0.1,0.1-0.1,0.2-0.1,0.2
	c0,0.1-0.8,0.8-0.8,0.8s-0.1,0-0.1,0.1c-0.1,0.1-0.3,0.2-0.5,0.3c-0.1,0-0.2,0.1-0.4,0.2c-0.2,0.1-0.3,0.1-0.4,0.1
	c-0.1,0-0.2,0-0.2,0.1c0,0.2-2.5,0.3-2.6,0.1c0,0-0.1-0.1-0.2-0.1c-0.1,0-0.2,0-0.3-0.1c-0.1,0-0.2-0.1-0.3-0.1
	c-0.1,0-0.2-0.1-0.2-0.1l-0.1-0.1c-0.1,0-1.3-1.2-1.3-1.3s0-0.1-0.1-0.1l-0.1-0.1c0-0.1-0.1-0.2-0.1-0.3c0.2-0.4,0.1-0.5,0.1-0.6
	S19,27.3,19,27.2S18.9,27,18.9,27c0-0.1,0-0.1-0.1-0.2c-0.1-0.1-0.1-14,0-14c0.1-0.1,0.3,0.2,0.3,0.3c0,0.1,0,0.1,0.1,0.1
	c0,0,0.1,0.1,0.2,0.2s0.1,0.2,0.2,0.3c0,0,0.1,0.2,0.2,0.3c0.2,0.3,1,1.1,1.3,1.3c0.1,0.1,0.3,0.3,0.4,0.3c0.1,0.1,0.2,0.2,0.3,0.2
	c0,0,0.1,0,0.1,0.1S22,16,22.1,16c0.1,0,0.2,0.1,0.2,0.1l0.1,0.1c0,0,0.1,0,0.1,0.1l0.1,0.1h0.1c0,0.1,0.3,0.2,0.4,0.2
	c0,0,0.1,0,0.1,0.1l0.1,0.1c0.1,0,0.1,0,0.2,0.1c0,0,0.1,0.1,0.2,0.1c0.1,0,0.2,0,0.2,0.1c0,0,0.1,0.1,0.2,0.1c0.1,0,0.2,0,0.2,0.1
	s0.1,0.1,0.2,0.1c0.1,0,0.4,0.1,0.5,0.1c0.2,0,0.6,0.1,0.8,0.1h0.5l0.2-0.2c0.2-0.2,0.2-0.3,0-0.6l-0.1-0.2h-0.3
	c-0.3,0-1.1-0.1-1.1-0.2s0.2-0.2,0.2-0.2s0.2-0.2,0.5-0.4l0.4-0.4l0.9,0.1c0.5,0,0.9,0,0.9,0s0.2-0.1,0.4-0.1s0.3,0,0.3-0.1
	c0,0,0.1-0.1,0.2-0.1c0.1,0,0.2,0,0.2-0.1c0,0,0.1-0.1,0.2-0.1c0.1,0,0.2,0,0.2-0.1l0.1-0.1c0.3,0,2-1.5,2-1.7
	c0-0.1,0.2-0.3,0.3-0.4s0.1-0.2,0.1-0.2c0-0.1,0.1-0.2,0.1-0.2c0-0.1,0.1-0.2,0.1-0.3s0.1-0.2,0.1-0.3c0-0.2,0.1-0.4,0.3-0.4
	C32.5,11.4,32.7,11.5,32.8,11.6z"/>
<path class="st0" d="M11.5,32C11.5,32,11.5,32.1,11.5,32c-0.2,0.1-0.5,0.4-0.5,0.5s0,0.1-0.1,0.1s-0.1,0.1,0,0.4
	c0,0.2,0.1,0.4,0.1,0.5c0,0.2,0.2,0.4,0.5,0.5s12.1,0.1,12.4,0c0.4-0.1,0.6-0.5,0.6-1.1v-0.4l-0.2-0.2c-0.4-0.4,0-0.4-6.7-0.4
	C13.6,31.9,11.5,32,11.5,32z"/>
<path class="st0" d="M11.4,35c-0.2,0.1-0.4,0.4-0.4,0.5c0,0,0,0.1-0.1,0.1s-0.1,0.1,0,0.4c0.1,0.5,0.2,0.7,0.5,0.8l0.2,0.1h6h6
	l0.2-0.1c0.3-0.1,0.5-0.3,0.6-0.6c0.2-0.5,0-1.1-0.5-1.3C23.8,34.9,11.6,34.9,11.4,35z"/>
<path class="st0" d="M11.7,37.8C11.7,37.8,11.7,37.9,11.7,37.8c-0.2,0.1-0.4,0.2-0.7,0.4l-0.2,0.2l0.1,0.5c0.1,0.5,0.2,0.7,0.4,0.8
	l0.2,0.1h6.3h6.3l0.2-0.1c0.3-0.2,0.5-0.9,0.3-1.3c-0.1-0.3-0.5-0.6-0.7-0.6c-0.1,0-0.1,0-0.1-0.1c0,0-0.2-0.1-0.5-0.1
	s-0.5,0-0.5,0.1c0,0-1.8,0.1-5.1,0.1s-5.1,0-5.1-0.1c0,0-0.1-0.1-0.3-0.1C11.9,37.7,11.7,37.8,11.7,37.8z"/>
<path class="st0" d="M13.4,40.8c-0.1,0.1-0.1,0.4,0,0.4l0.1,0.1c0,0.2,0.4,0.7,0.8,0.9c0.2,0.1,0.3,0.2,0.3,0.3l0.1,0.1
	c0,0,0.2,0.1,0.3,0.1c0.1,0.1,0.3,0.1,0.3,0.1c0.1,0,0.1,0,0.2,0.1c0,0,0.1,0.1,0.2,0.1s0.2,0,0.2,0.1c0,0,0.1,0.1,0.2,0.1
	s0.2,0,0.2,0.1s1.8,0.1,2.3,0.1c1-0.1,1.4-0.2,1.5-0.3c0,0,0.1-0.1,0.2-0.1s0.2-0.1,0.4-0.1c0.1-0.1,0.3-0.2,0.4-0.2
	c0.1,0,0.2-0.1,0.3-0.2c0.1-0.1,0.1-0.1,0.2-0.1c0.1,0,0.2-0.2,0.5-0.6c0.1-0.1,0.1-0.2,0.1-0.3s0-0.2,0.1-0.2s0.1-0.3,0-0.4
	c-0.1-0.1-0.3-0.1-0.3,0c0,0-1.4,0.1-4,0.1s-4,0-4-0.1C13.8,40.7,13.4,40.7,13.4,40.8z"/>
<path class="st0" d="M15.6,46.5c0,0-0.3,0.1-0.8,0.1s-0.8,0-0.8,0.1c0,0-0.2,0.1-0.6,0.1c-0.3,0-0.6,0-0.6,0.1c0,0-0.2,0.1-0.6,0.1
	c-0.3,0-0.6,0-0.6,0.1c0,0-0.1,0.1-0.3,0.1s-0.3,0-0.3,0.1c0,0-0.1,0.1-0.3,0.1c-0.2,0-0.3,0-0.3,0.1l-0.1,0.1c0,0-0.1,0-0.1,0.1
	c0,0-0.1,0.1-0.3,0.1s-0.3,0-0.3,0.1L9.5,48c-0.1,0-0.1,0-0.1,0.1c0,0,0,0.1-0.1,0.1S9.1,48.3,9,48.4l-0.2,0.2L9,48.8
	C9.1,48.9,9.3,49,9.3,49c0.1,0,0.1,0,0.1,0.1l0.1,0.1c0.1,0,0.1,0,0.1,0.1l0.1,0.1c0,0,0.1,0,0.1,0.1c0,0,0.1,0.1,0.2,0.1
	s0.2,0,0.2,0.1c0,0,0.1,0.1,0.3,0.1c0.1,0,0.3,0,0.3,0.1c0,0,0.1,0.1,0.3,0.1c0.2,0,0.3,0,0.3,0.1c0,0,0.2,0.1,0.4,0.1
	c0.2,0,0.4,0,0.4,0.1c0,0,0.2,0.1,0.4,0.1c0.3,0,0.4,0,0.4,0.1c0,0,0.3,0.1,0.7,0.1s0.7,0,0.7,0.1c0,0,1.1,0.1,3.2,0.1
	s3.2,0,3.2-0.1c0,0,0.2-0.1,0.6-0.1s0.6,0,0.6-0.1c0,0,0.2-0.1,0.5-0.1s0.5,0,0.5-0.1c0,0,0.2-0.1,0.4-0.1s0.4,0,0.4-0.1
	c0,0,0.1-0.1,0.3-0.1s0.3,0,0.3-0.1l0.1-0.1c0,0,0.1,0,0.1-0.1c0,0,0.1-0.1,0.3-0.1s0.3,0,0.3-0.1l0.1-0.1c0,0,0.1,0,0.1-0.1
	c0,0,0.1-0.1,0.2-0.1c0.2,0,0.8-0.6,0.7-0.6l-0.1-0.1c0-0.1-0.2-0.3-0.3-0.3s-0.1,0-0.1-0.1c0,0-0.1-0.1-0.2-0.1
	c-0.1,0-0.2,0-0.2-0.1c0,0-0.1-0.1-0.3-0.1s-0.3,0-0.3-0.1c0,0-0.1-0.1-0.3-0.1c-0.1,0-0.3,0-0.3-0.1l-0.1-0.1c-0.1,0-0.1,0-0.1-0.1
	c0,0-0.1-0.1-0.3-0.1s-0.3,0-0.3-0.1c0,0-0.2-0.1-0.6-0.1c-0.3,0-0.6,0-0.6-0.1c0,0-0.2-0.1-0.6-0.1s-0.6,0-0.6-0.1
	c0,0-0.3-0.1-0.8-0.1s-0.8,0-0.8-0.1c0,0-0.8-0.1-2.2-0.1S15.6,46.5,15.6,46.5z"/>
</svg>
