<?xml version="1.0" encoding="utf-8"?>
<!-- Generator: Adobe Illustrator 21.1.0, SVG Export Plug-In . SVG Version: 6.00 Build 0)  -->
<svg version="1.1" id="Price" xmlns:sketch="http://www.bohemiancoding.com/sketch/ns"
	 xmlns="http://www.w3.org/2000/svg" xmlns:xlink="http://www.w3.org/1999/xlink" x="0px" y="0px" viewBox="0 0 59 60"
	 style="enable-background:new 0 0 59 60;" xml:space="preserve">
<path id="Tag" sketch:type="MSShapeGroup" d="M58.7,0.3c-0.4-0.4-1-0.4-1.4,0L53.6,4H30.3L1,33.5c-1.4,1.4-1.4,3.6,0,5L21.5,59
	c0.7,0.7,1.6,1,2.5,1c0.9,0,1.8-0.4,2.5-1L55,29.7V5.4l3.7-3.7C59.1,1.3,59.1,0.7,58.7,0.3L58.7,0.3z M32.1,31c0.4-0.4,1-0.4,1.4,0
	c0.4,0.4,0.4,1,0,1.4l-7.1,7.1c-0.2,0.2-0.5,0.3-0.7,0.3c-0.3,0-0.5-0.1-0.7-0.3c-0.4-0.4-0.4-1,0-1.4L32.1,31L32.1,31z M22.2,21.1
	c0.4-0.4,1-0.4,1.4,0c0.2,0.2,0.3,0.4,0.3,0.7c0,0.3-0.1,0.5-0.3,0.7c-0.2,0.2-0.4,0.3-0.7,0.3c-0.3,0-0.5-0.1-0.7-0.3
	c-0.2-0.2-0.3-0.5-0.3-0.7C21.9,21.5,22,21.3,22.2,21.1L22.2,21.1z M8.8,36.9c-0.3,0-0.5-0.1-0.7-0.3c-0.4-0.4-0.4-1,0-1.4
	l10.6-10.6c0.4-0.4,1-0.4,1.4,0c0.4,0.4,0.4,1,0,1.4L9.5,36.6C9.3,36.8,9.1,36.9,8.8,36.9L8.8,36.9z M15.2,40.9
	c-0.2,0.2-0.4,0.3-0.7,0.3c-0.3,0-0.5-0.1-0.7-0.3c-0.2-0.2-0.3-0.4-0.3-0.7c0-0.3,0.1-0.5,0.3-0.7c0.4-0.4,1-0.4,1.4,0
	c0.2,0.2,0.3,0.4,0.3,0.7C15.5,40.4,15.4,40.7,15.2,40.9L15.2,40.9z M20.8,45.1l-1.4,1.4c-0.2,0.2-0.5,0.3-0.7,0.3
	c-0.3,0-0.5-0.1-0.7-0.3c-0.4-0.4-0.4-1,0-1.4l1.4-1.4c0.4-0.4,1-0.4,1.4,0C21.2,44.1,21.2,44.7,20.8,45.1L20.8,45.1z M18,38.1
	c-0.2,0.2-0.5,0.3-0.7,0.3c-0.3,0-0.5-0.1-0.7-0.3c-0.4-0.4-0.4-1,0-1.4L27.2,26c0.4-0.4,1-0.4,1.4,0c0.4,0.4,0.4,1,0,1.4L18,38.1
	L18,38.1z M21.9,41.6c0-0.3,0.1-0.5,0.3-0.7c0.4-0.4,1.1-0.4,1.4,0c0.2,0.2,0.3,0.5,0.3,0.7c0,0.3-0.1,0.5-0.3,0.7
	c-0.2,0.2-0.4,0.3-0.7,0.3c-0.3,0-0.5-0.1-0.7-0.3C22,42.1,21.9,41.9,21.9,41.6L21.9,41.6z M35,40.9L24.4,51.5
	c-0.2,0.2-0.5,0.3-0.7,0.3c-0.3,0-0.5-0.1-0.7-0.3c-0.4-0.4-0.4-1,0-1.4l10.6-10.6c0.4-0.4,1-0.4,1.4,0C35.4,39.9,35.4,40.5,35,40.9
	L35,40.9z M38.5,37.4c-0.2,0.2-0.4,0.3-0.7,0.3c-0.3,0-0.5-0.1-0.7-0.3c-0.2-0.2-0.3-0.4-0.3-0.7c0-0.3,0.1-0.5,0.3-0.7
	c0.4-0.4,1.1-0.4,1.4,0c0.2,0.2,0.3,0.4,0.3,0.7C38.8,36.9,38.7,37.2,38.5,37.4L38.5,37.4z M44,20c-2.8,0-5-2.2-5-5s2.2-5,5-5
	s5,2.2,5,5S46.8,20,44,20L44,20z"/>
</svg>
