<?xml version="1.0" encoding="utf-8"?>
<!-- Generator: Adobe Illustrator 21.1.0, SVG Export Plug-In . SVG Version: 6.00 Build 0)  -->
<svg version="1.1" id="GraduationCap" xmlns="http://www.w3.org/2000/svg" xmlns:xlink="http://www.w3.org/1999/xlink" x="0px"
	 y="0px" viewBox="0 0 60 41" style="enable-background:new 0 0 60 41;" xml:space="preserve">
<path id="Fill-252" d="M47,23.9v6.9c0,1.7-1.1,3.4-2.8,4.3l-2,1c-7.7,3.8-16.8,3.8-24.5,0l-2-1c-1.7-0.8-2.8-2.5-2.8-4.3v-6.9
	l16.6,8c0.3,0.1,0.6,0.1,0.9,0L47,23.9z M6,17.8L25,15.5c0.2-2.5,2.4-4.5,5-4.5c2.8,0,5,2.2,5,5c0,2.8-2.2,5-5,5
	c-2.2,0-4.1-1.5-4.7-3.5L6,19.8V18C6,17.9,6,17.9,6,17.8L6,17.8z M59.5,16.1l-29-15.9c-0.3-0.2-0.7-0.2-1,0l-29,15.9
	C0.2,16.2,0,16.6,0,17c0,0.4,0.2,0.7,0.6,0.9L4,19.5v9.2l-2.7,6c-0.5,1.1-0.4,2.5,0.3,3.5C2.3,39.3,3.4,40,4.7,40h0.7
	c1.2,0,2.4-0.6,3.1-1.7c0.7-1,0.8-2.3,0.3-3.5L6,28.7v-8.2l5,2.4v7.9c0,2.5,1.5,4.9,3.9,6.1l2,1c4.1,2.1,8.6,3.1,13.1,3.1
	c4.5,0,9-1,13.1-3.1l2-1c2.4-1.2,3.9-3.6,3.9-6.1v-7.9l10.4-5.1c0.3-0.2,0.6-0.5,0.6-0.9C60,16.6,59.8,16.2,59.5,16.1L59.5,16.1z"/>
<path id="Fill-253" d="M31,15.8c0.1,0.5-0.3,1-0.9,1.1l-2.8,0.3c0.5,1,1.5,1.7,2.7,1.7c1.7,0,3-1.3,3-3c0-1.7-1.3-3-3-3
	c-1.4,0-2.6,1-2.9,2.3l2.8-0.3C30.4,14.9,30.9,15.3,31,15.8"/>
</svg>
