<?xml version="1.0" encoding="utf-8"?>
<!-- Generator: Adobe Illustrator 21.1.0, SVG Export Plug-In . SVG Version: 6.00 Build 0)  -->
<svg version="1.1" id="Diploma" xmlns="http://www.w3.org/2000/svg" xmlns:xlink="http://www.w3.org/1999/xlink" x="0px" y="0px"
	 viewBox="0 0 60 53" style="enable-background:new 0 0 60 53;" xml:space="preserve">
<path id="Fill-201" d="M58,44h-6v-2.4c3-1.7,5-5,5-8.6c0-5.5-4.5-10-10-10s-10,4.5-10,10c0,3.7,2,6.9,5,8.6V44H2V2h56V44z M50,49.6
	l-2.3-2.3C47.5,47.1,47.3,47,47,47s-0.5,0.1-0.7,0.3L44,49.6V45v-2.5c0.1,0,0.2,0.1,0.3,0.1c0.2,0,0.3,0.1,0.5,0.1
	c0.1,0,0.2,0,0.4,0.1c0.2,0,0.4,0.1,0.6,0.1c0.1,0,0.2,0,0.3,0c0.3,0,0.5,0,0.8,0c0,0,0.1,0,0.1,0s0.1,0,0.1,0c0.3,0,0.5,0,0.8,0
	c0.1,0,0.2,0,0.3,0c0.2,0,0.4-0.1,0.6-0.1c0.1,0,0.2,0,0.4-0.1c0.2,0,0.3-0.1,0.5-0.1c0.1,0,0.2-0.1,0.3-0.1V45V49.6z M47,29
	c-2.2,0-4,1.8-4,4c0,0.6-0.4,1-1,1s-1-0.4-1-1c0-3.3,2.7-6,6-6c0.6,0,1,0.4,1,1S47.6,29,47,29L47,29z M47,39c-0.6,0-1-0.4-1-1
	s0.4-1,1-1c2.2,0,4-1.8,4-4c0-0.6,0.4-1,1-1s1,0.4,1,1C53,36.3,50.3,39,47,39L47,39z M59,0H1C0.4,0,0,0.4,0,1v44c0,0.6,0.4,1,1,1h41
	v6c0,0.4,0.2,0.8,0.6,0.9c0.4,0.2,0.8,0.1,1.1-0.2l3.3-3.3l3.3,3.3c0.2,0.2,0.4,0.3,0.7,0.3c0.1,0,0.3,0,0.4-0.1
	c0.4-0.2,0.6-0.5,0.6-0.9v-6h7c0.6,0,1-0.4,1-1V1C60,0.4,59.6,0,59,0L59,0z"/>
<path id="Fill-202" d="M14,30h8c0.6,0,1,0.4,1,1s-0.4,1-1,1h-8c-0.6,0-1-0.4-1-1S13.4,30,14,30 M14,25h2c0.6,0,1,0.4,1,1s-0.4,1-1,1
	h-2c-0.6,0-1-0.4-1-1S13.4,25,14,25 M14,15h32c0.6,0,1,0.4,1,1c0,0.6-0.4,1-1,1H14c-0.6,0-1-0.4-1-1C13,15.4,13.4,15,14,15 M24,10
	h12c0.6,0,1,0.4,1,1s-0.4,1-1,1H24c-0.6,0-1-0.4-1-1S23.4,10,24,10 M34,27H20c-0.6,0-1-0.4-1-1s0.4-1,1-1h14c0.6,0,1,0.4,1,1
	S34.6,27,34,27 M34,32h-8c-0.6,0-1-0.4-1-1s0.4-1,1-1h8c0.6,0,1,0.4,1,1S34.6,32,34,32 M5,38c1.7,0,3,1.3,3,3c0,0.6,0.4,1,1,1h30.1
	c-2.5-2.2-4.1-5.4-4.1-9c0-4.9,3-9.1,7.2-11l4.8-1c3.6,0,6.8,1.6,9,4.1V9c0-0.6-0.4-1-1-1c-1.7,0-3-1.3-3-3c0-0.6-0.4-1-1-1H9
	C8.4,4,8,4.4,8,5c0,1.7-1.3,3-3,3C4.4,8,4,8.4,4,9v28C4,37.6,4.4,38,5,38"/>
</svg>
