<svg version="1.1" id="Brain" xmlns:sketch="http://www.bohemiancoding.com/sketch/ns"
	 xmlns="http://www.w3.org/2000/svg" xmlns:xlink="http://www.w3.org/1999/xlink" x="0px" y="0px" viewBox="0 0 57 60"
	 style="enable-background:new 0 0 57 60;" xml:space="preserve">
<path id="Left" sketch:type="MSShapeGroup" d="M22.9,0c-0.5,0-0.9,0.1-1.2,0.3c-1.6,0.3-2.6,1.3-3.3,2c-0.5,0.5-0.9,0.9-1.3,0.9h0
	c-0.5,0-0.9,0-1.3,0c-2.7,0-4.1,0.9-5.4,3.6c0,0.1-0.1,0.1-0.1,0.2H11c3.3,0,6,2.7,6,6c0,0.6-0.4,1-1,1c-0.6,0-1-0.4-1-1
	c0-2.2-1.8-4-4-4H6.3c-2.4,1.8-3.9,5-3.7,8.3c0.1,1.6-0.3,4.2-1.1,5.4c-1.9,3-1.9,7.1,0,10.1c0.3,0.5,0.7,1,1.2,1.6
	C3.5,35.5,5,37.3,5,38.2c-0.2,3.7,2.1,8,5.1,9.6c0.5,0.3,0.6,0.6,0.8,1.4c0,0.1,0,0.2,0.1,0.3v-1.3c0-3.9,3.1-7,7-7c0.6,0,1,0.4,1,1
	c0,0.6-0.4,1-1,1c-2.8,0-5,2.2-5,5v4.5c0.5,0.4,1.1,0.6,1.5,0.8c0.9,0.4,1.3,0.5,1.5,1.5c0.4,2.8,2.1,4.5,4.5,4.5
	c3.6,0,7.5-3.8,7.5-9.3v-37c0,0.6-0.4,1-1,1c-3.3,0-6,2.7-6,6c0,4.4-3.6,8-8,8c-0.6,0-1-0.4-1-1c0-0.6,0.4-1,1-1c3.3,0,6-2.7,6-6
	c0-4.4,3.6-8,8-8c0.6,0,1,0.4,1,1v-9C28,2.2,24.9,0,22.9,0L22.9,0z M20,33c0-1.9,0.8-3.8,2.1-5.1c0.4-0.4,1-0.4,1.4,0
	c0.4,0.4,0.4,1,0,1.4c-1,1-1.5,2.3-1.5,3.7c0,1.4,0.5,2.7,1.5,3.7c0.4,0.4,0.4,1,0,1.4c-1,1-1.5,2.3-1.5,3.7c0,1.4,0.5,2.7,1.5,3.7
	c0.4,0.4,0.4,1,0,1.4c-0.2,0.2-0.5,0.3-0.7,0.3c-0.3,0-0.5-0.1-0.7-0.3c-1.4-1.4-2.1-3.2-2.1-5.1c0-1.6,0.5-3.2,1.5-4.4
	C20.5,36.1,20,34.6,20,33L20,33z M12.8,35.5L12.8,35.5c-0.4,1.1,0.2,2.2,1.2,2.6c0.5,0.2,0.8,0.8,0.6,1.3c-0.1,0.4-0.5,0.7-0.9,0.7
	c-0.1,0-0.2,0-0.3-0.1c-2.1-0.8-3.2-3.1-2.4-5.2v0c0.4-1.1-0.2-2.2-1.2-2.6C9.2,32,9,31.4,9.2,30.9c0.2-0.5,0.8-0.8,1.3-0.6
	C12.5,31.1,13.6,33.4,12.8,35.5L12.8,35.5z M14.7,20.2c-0.6,1.6-2.2,2.6-3.8,2.6c-0.5,0-0.9-0.1-1.4-0.2c-1.1-0.4-2.2,0.2-2.6,1.2
	c-0.1,0.4-0.5,0.7-0.9,0.7c-0.1,0-0.2,0-0.3-0.1C5,24.2,4.8,23.6,5,23.1c0.8-2.1,3.1-3.2,5.2-2.4c1.1,0.4,2.2-0.2,2.6-1.2
	c0.2-0.5,0.8-0.8,1.3-0.6C14.6,19.1,14.8,19.6,14.7,20.2L14.7,20.2z"/>
<path id="Right" sketch:type="MSShapeGroup" d="M55.6,22.5c-0.8-1.2-1.2-3.8-1.1-5.4c0.2-3.3-1.3-6.5-3.7-8.3H46c-1.7,0-3,1.3-3,3
	c0,0.6-0.4,1-1,1c-0.6,0-1-0.4-1-1c0-2.8,2.2-5,5-5h0.8c0-0.1-0.1-0.1-0.1-0.2C45.4,3.9,44,3,41.2,3c-0.4,0-0.8,0-1.3,0
	c-0.3,0-0.7-0.5-1.1-0.9c-0.7-0.8-1.7-1.9-3.3-2L35,0c-3.2,0-6,1.8-6,4v46c0,5.5,4,9.3,7.5,9.3h0c2.4,0,4.1-1.7,4.5-4.5
	c0.1-1,0.5-1.2,1.5-1.5c0.5-0.2,1-0.4,1.5-0.8V48c0-2.8-2.2-5-5-5c-0.6,0-1-0.4-1-1s0.4-1,1-1c3.9,0,7,3.1,7,7v1.3
	c0-0.1,0.1-0.2,0.1-0.3c0.2-0.9,0.3-1.1,0.8-1.4c3-1.6,5.3-5.9,5.1-9.6c0-0.2,0-0.4,0.1-0.6l-3-3.5c-1.1-1.8-3-2.9-5.1-2.9
	c-4.4,0-8-3.6-8-8c0-0.6,0.4-1,1-1c0.6,0,1,0.4,1,1c0,3.3,2.7,6,6,6c2.8,0,5.3,1.4,6.8,3.8l2.4,2.8c0.4-0.5,0.8-1,1.1-1.4
	c0.5-0.6,0.9-1.1,1.2-1.6C57.5,29.6,57.5,25.4,55.6,22.5L55.6,22.5z M36.2,31c2.6,2.6,2.6,6.9,0,9.6c-0.9,0.9-1.4,2.1-1.4,3.4
	c0,1.3,0.5,2.5,1.4,3.4c0.4,0.4,0.4,1,0,1.4C36,48.9,35.8,49,35.5,49s-0.5-0.1-0.7-0.3c-1.3-1.3-2-3-2-4.8c0-1.8,0.7-3.5,2-4.8
	c1.9-1.9,1.9-4.9,0-6.7c-0.4-0.4-0.4-1,0-1.4C35.2,30.6,35.8,30.6,36.2,31L36.2,31z M48.2,23.4c-0.4,0.1-0.8,0.1-1.2,0.1
	c-3.2,0-6.1-2.3-6.7-5.6c-0.2-1.3-0.9-2.3-2-3.1c-1-0.7-2.3-1-3.6-0.8c-0.5,0.1-1.1-0.3-1.2-0.8c-0.1-0.5,0.3-1.1,0.8-1.2
	c1.8-0.3,3.6,0.1,5.1,1.1c1.5,1,2.5,2.6,2.8,4.4c0.5,2.6,2.9,4.3,5.5,3.9c0.5-0.1,1.1,0.3,1.2,0.8C49.1,22.8,48.7,23.3,48.2,23.4
	L48.2,23.4z"/>
</svg>
