<?xml version="1.0" encoding="utf-8"?>
<!-- Generator: Adobe Illustrator 21.1.0, SVG Export Plug-In . SVG Version: 6.00 Build 0)  -->
<svg version="1.1" id="Brain" xmlns:sketch="http://www.bohemiancoding.com/sketch/ns"
	 xmlns="http://www.w3.org/2000/svg" xmlns:xlink="http://www.w3.org/1999/xlink" x="0px" y="0px" viewBox="0 0 57 60"
	 style="enable-background:new 0 0 57 60;" xml:space="preserve">
<style type="text/css">
	.st0{fill:#CC99CC;}
</style>
<path class="st0" d="M28,0c-0.1,0.1-0.2,0.2-0.3,0.3c0,0.1-0.1,0.1-0.1,0.1c0,0-0.1,0.1-0.1,0.1s0,0.1-0.1,0.1c0,0-0.1,1.5-0.1,4.2
	c0,2.8,0,4.3,0.1,4.3c0,0,0.1,0.1,0.1,0.2c0,0.1,0.2,0.4,0.4,0.5c0.2,0.1,1.1,0.1,1.1,0c0,0,0-0.1,0.1-0.1c0.1,0,0.3-0.3,0.5-0.5
	c0.1-0.1,0.1-1.1,0.1-4.4c0-2.3,0-4.3-0.1-4.3c0-0.1-0.1-0.2-0.1-0.3c0-0.1-0.2-0.2-0.3-0.3c-0.1,0-0.2-0.1-0.2-0.1
	C29.1-0.2,28.2-0.1,28,0z"/>
<path class="st0" d="M10.2,6c0,0-0.1,0.1-0.2,0.1c-0.1,0-0.2,0-0.2,0.1c0,0-0.1,0.1-0.1,0.1c-0.1,0-0.4,0.3-0.4,0.4
	c0,0.1,0,0.1-0.1,0.2c0,0-0.1,0.2-0.1,0.4c0,0.3,0.1,0.5,0.2,0.7C9.4,8,9.5,8,9.5,8c0,0,0.1,0.1,0.2,0.1c0.1,0,0.2,0.1,0.2,0.2
	c0,0.1,0.1,0.1,0.1,0.1c0,0,0.2,0.1,0.3,0.3C10.3,8.9,10.4,9,10.5,9c0,0,0.1,0.1,0.2,0.2c0.1,0.1,0.2,0.2,0.2,0.3
	c0.1,0,1.2,1.1,1.2,1.1c0,0,0.6,0.7,0.7,0.7c0.1,0,1.1,1.1,1.1,1.2c0,0.1,0.1,0.1,0.1,0.1c0,0,0.3,0.3,0.6,0.6
	c0.3,0.3,0.6,0.6,0.7,0.6c0.1,0,0.2,0,0.3,0.1c0.2,0.1,0.2,0.1,0.2,0c0,0,0.1-0.1,0.2-0.1c0.1,0,0.2,0,0.2-0.1c0,0,0-0.1,0.1-0.1
	c0.3,0,0.7-0.9,0.5-1.3c0-0.1-0.1-0.2-0.1-0.3c-0.1-0.2-5.7-5.9-5.8-5.9c-0.1,0-0.1,0-0.1-0.1c0,0-0.1-0.1-0.1-0.1
	c-0.1,0-0.1,0-0.1-0.1c0,0-0.1-0.1-0.2-0.1C10.3,5.9,10.2,6,10.2,6z"/>
<path class="st0" d="M46.8,6c0,0-0.1,0.1-0.1,0.1s-0.2,0.1-0.4,0.2c-0.3,0.2-5.7,5.7-5.7,5.8c0,0.1,0,0.1-0.1,0.1
	c0,0-0.1,0.1-0.1,0.1c0,0.1,0,0.1-0.1,0.2c-0.1,0.1-0.1,0.3,0,0.6c0.1,0.2,0.1,0.2,0,0.3c-0.1,0-0.1,0.2,0.1,0.4l0.2,0.2l0.1-0.1
	c0-0.1,0.1-0.1,0.1,0c0.1,0.1,0.3,0.1,0.6,0.1H42l1.7-1.7c0.9-1,1.7-1.7,1.8-1.7s0.1-0.1,0.2-0.2c0.1-0.2,1.8-1.9,2-2
	c0.2-0.1,0.4-0.6,0.4-1c0-0.2,0-0.3-0.1-0.4c0,0-0.1-0.1-0.1-0.2c0-0.1-0.3-0.4-0.4-0.4S47.2,6,47.2,6c0,0-0.1,0-0.2,0
	C46.9,5.9,46.8,6,46.8,6z"/>
<path class="st0" d="M19.1,14c-0.1,0-0.6,0.3-0.7,0.4c0,0.1-0.1,0.1-0.1,0.1c0,0-0.1,0-0.1,0.1c0,0-0.2,0.2-0.3,0.3
	c-0.1,0.1-0.2,0.2-0.2,0.2c0,0-0.1,0.2-0.3,0.3c-0.1,0.1-0.3,0.3-0.3,0.3c0,0.1-0.1,0.3-0.2,0.4c-0.1,0.1-0.3,0.2-0.8,0.4
	c-0.1,0-0.2,0.1-0.3,0.2c-0.1,0.1-0.2,0.2-0.3,0.2c-0.1,0-0.1,0.1-0.1,0.1c0,0-0.3,0.3-0.4,0.4c-0.1,0.1-0.1,0.2-0.1,0.2
	c0,0.1-0.6,1-0.6,1.1C14.1,18.9,14,19,14,19.1c0,0.1-0.2,0.6-0.2,0.7c0,0.1,0,0.3-0.1,0.5c0,0.4-0.5,0.8-0.6,1
	c-0.2,0.2-0.3,0.4-0.5,0.7c-0.2,0.3-0.2,0.4-0.2,0.4c0,0.1,0,0.1-0.1,0.1c-0.1,0-0.1,0.4-0.2,1.2c0,0.5,0,0.8,0,0.8
	c0,0,0.1,0.2,0.1,0.4c0,0.3,0,0.4-0.1,0.4c-0.1,0-0.1,0.1-0.1,0.2s0,0.1-0.1,0.1c-0.1,0-0.1,0.1-0.1,0.2c0,0.1,0,0.2,0,0.2
	c0,0-0.1,0.1-0.1,0.1s0,0.1-0.1,0.1c-0.1,0-0.2,1.4-0.1,2c0.1,0.6,0.4,1.3,0.5,1.4c0,0,0,0.1,0,0.1c0,0,0.1,0.1,0.1,0.2l0.1,0.2
	l0,1.1c0,1.1,0.1,1.6,0.2,1.7c0,0,0.1,0.1,0.1,0.1c0,0.1,0.1,0.5,0.2,0.5c0,0,0,0,0,0.1c0,0.1,0.1,0.3,0.2,0.4c0,0,0.1,0.1,0.2,0.3
	c0.1,0.1,0.3,0.4,0.5,0.6c0.3,0.3,0.4,0.4,0.4,0.7c0.1,0.2,0.1,0.3,0.1,0.3c0,0,0.1,0.1,0.1,0.2c0,0.1,0.1,0.3,0.2,0.4
	c0.1,0.1,0.2,0.3,0.2,0.4c0,0.1,0.1,0.2,0.2,0.3c0.1,0.1,0.2,0.2,0.2,0.2c0,0.1,0.5,0.5,0.9,0.8c0.2,0.2,0.5,0.4,0.7,0.4
	c0.1,0,0.1,0.1,0.1,0.1c0,0,0.1,0.1,0.1,0.1c0.1,0,0.1,0,0.2,0.1c0,0,0.1,0.1,0.2,0.1c0.1,0,0.2,0,0.2,0.1c0,0,0.1,0.1,0.3,0.1
	c0.2,0,0.3,0.1,0.3,0.1c0,0,0.2,0.1,0.4,0.1c0.3,0,0.4,0,0.4,0.1c0,0.1,0.7,0.9,1,1.1c0.3,0.2,0.9,0.5,1,0.5c0.1,0,0.1,0,0.1,0.1
	c0,0,0.1,0.1,0.1,0.1c0.1,0,0.2,0,0.2,0.1c0.2,0.2,2.1,0.2,3,0.1c0.9-0.1,1-0.1,1.1-0.2c0,0,0.1-0.1,0.1-0.1c0.4,0,1.5-0.9,1.9-1.5
	c0-0.1,0.1-0.2,0.1-0.2c0,0,0.2-0.3,0.3-0.5c0-0.1,0.1-0.3,0.2-0.4c0.1-0.2,0.2-0.4,0.2-0.5l0.1-0.2l0-11.8c0-7.9,0-11.8,0-12
	c0-0.1-0.1-0.3-0.2-0.4c-0.1-0.1-0.1-0.3-0.1-0.3c0,0,0-0.1-0.1-0.1c0,0-0.1-0.1-0.1-0.1s0-0.1-0.1-0.1c0,0-0.1,0-0.1-0.1
	c0,0-0.1-0.2-0.3-0.4c-0.1-0.2-0.3-0.3-0.3-0.3c0-0.1-0.3-0.2-0.4-0.2c0,0-0.1,0-0.1-0.1c0-0.1-0.6-0.3-0.7-0.3
	c-0.1,0-0.2,0-0.2-0.1c0,0-0.4-0.1-0.9-0.1c-0.5,0-0.9,0-0.9,0.1c0,0-0.1,0.1-0.2,0.1c-0.1,0-0.2,0-0.3,0.1c0,0-0.2,0.1-0.4,0.1
	c-0.2,0-0.3,0.1-0.3,0.1c0,0-0.1,0.2-0.4,0.4c-0.2,0.2-0.4,0.4-0.4,0.5s0,0.1,0,0.1c0,0-0.1,0.2-0.2,0.3l-0.2,0.3l-0.2,0
	c-0.1,0-0.2,0-0.2,0c0,0-0.1,0.1-0.3,0.1c-0.2,0-0.3,0-0.3,0.1c0,0-0.1,0.1-0.3,0.1s-0.3,0-0.3,0.1c0,0-0.1,0.1-0.3,0.1 M25.4,12.2
	c0,0,0.2,0.1,0.3,0.1c0.2,0,0.3,0.1,0.3,0.1c0,0,0,0.1,0.1,0.1c0,0,0.2,0.1,0.3,0.2c0.1,0.1,0.2,0.2,0.3,0.2c0,0,0.1,0.1,0.2,0.1
	c0.1,0.1,0.2,0.2,0.3,0.3c0.1,0.1,0.2,0.3,0.3,0.4c0.1,0.1,0.1,0.2,0.1,0.2c0.1,0,0.1,6.4,0,6.5c0,0-0.1,0.1-0.1,0.3s0,0.2-0.1,0.3
	c0,0-0.1,0.1-0.1,0.2c0,0.1-0.1,0.2-0.1,0.4c-0.1,0.1-0.1,0.3-0.1,0.4c0,0.1,0,0.1-0.1,0.1c0,0-0.1,0-0.1,0.1c0,0.1-0.4,0.9-0.5,0.9
	c0,0-0.1,0.1-0.1,0.1c0,0.1,0,0.1-0.1,0.1c0,0-0.1,0.1-0.2,0.3c-0.1,0.1-0.2,0.3-0.2,0.3s-0.1,0.1-0.1,0.1c0,0.1-1.3,1.4-1.4,1.4
	c0,0-0.1,0.1-0.3,0.2c-0.1,0.1-0.3,0.2-0.3,0.2c0,0-0.1,0-0.1,0.1c0,0-0.1,0.1-0.1,0.1c-0.1,0-0.2,0.1-0.4,0.2l-0.3,0.2l-0.5,0
	c-0.3,0-0.5,0-0.5-0.1c0,0-0.1-0.1-0.2-0.1c-0.1,0-0.2-0.1-0.4-0.1c-0.6-0.3-1-1.1-1.1-1.9c0-0.3,0-0.7,0-0.9l0-0.3h0.2
	c0.1,0,0.2,0,0.2-0.1c0,0,0.1-0.1,0.2-0.1c0.2,0,0.4-0.2,0.4-0.3c0,0-0.1-0.1-0.2-0.1s-0.4,0-0.8,0c-0.7,0-0.9,0-1-0.3
	c-0.1-0.2-0.3-0.3-0.5-0.1c-0.2,0.2-0.1,0.2,0.3,0.6l0.4,0.4l0,0.4c0,0.2,0.1,0.6,0.1,0.9c0,0.2,0.1,0.5,0.1,0.6l0,0.2l-0.9,0
	c-0.6,0-0.9,0-1-0.1c0,0-0.2-0.1-0.3-0.1c-0.1,0-0.2,0-0.2-0.1c0,0-0.1-0.1-0.1-0.1c-0.1,0-0.2-0.1-0.3-0.1
	c-0.1-0.1-0.2-0.1-0.2-0.1c0,0-0.1,0-0.1-0.1c0,0,0-0.1-0.1-0.1c-0.1,0-0.9-0.7-0.9-0.8c0,0-0.1-0.1-0.2-0.2
	c-0.1-0.1-0.2-0.2-0.2-0.3c0,0,0-0.1-0.1-0.1c0,0-0.1-0.1-0.1-0.1c0-0.1,0-0.1-0.1-0.1c0,0-0.1-0.1-0.1-0.3C15,22.2,15,22,14.9,21.9
	c0-0.1-0.1-0.2-0.1-0.3c0-0.1,0-0.2-0.1-0.2c0,0-0.1-0.4-0.1-1c0-0.6,0-1,0.1-1c0,0,0.1-0.1,0.1-0.2s0-0.2,0.1-0.2
	c0,0,0.1-0.1,0.1-0.2c0-0.1,0-0.2,0.1-0.2c0,0,0.1,0,0.1-0.1c0,0,0.1-0.1,0.1-0.2c0.1-0.1,0.1-0.2,0.1-0.2c0-0.1,0.5-0.6,0.7-0.7
	c0.1-0.1,0.2-0.1,0.2-0.2c0,0,0.1-0.1,0.1-0.1s0.1,0,0.1-0.1c0,0,0.1-0.1,0.2-0.1c0.1,0,0.3-0.1,0.3-0.1c0.1,0,0.2-0.1,0.2-0.1
	c0.1,0,0.3-0.2,0.3-0.3c0-0.1,0-0.1,0.1-0.1c0,0,0.1-0.1,0.1-0.1s0-0.1,0.1-0.1s0.1-0.1,0.2-0.2c0.2-0.4,1.2-1.2,1.4-1.2
	c0,0,0.2-0.1,0.3-0.1c0.1-0.1,0.3-0.1,0.3-0.1c0.1,0,0.1,0,0.2-0.1c0,0,0.3-0.1,0.6-0.1h0.6l0,0.4c0.1,0.9,0.1,1.1,0.2,1.2
	c0,0,0.1,0.1,0.1,0.2c0,0.3,0.9,1.5,1.2,1.5c0,0,0.1,0,0.1,0.1c0,0.1,0.7,0.5,0.9,0.5c0.1,0,0.1,0,0.2,0.1c0.2,0.1,0.6,0.2,0.8,0.2
	c0.2,0,0.2,0,0.2,0.1c0,0.1,0,0.1,0.1,0.1c0,0,0.1,0.1,0.1,0.1c0,0.1,0,0.1,0.1,0.1c0,0,0.1,0.1,0.1,0.1c0.2,0.3,0.5,0.3,0.5,0
	c0-0.1,0-0.2-0.1-0.2c0,0-0.1-0.1-0.1-0.2c0-0.1,0-0.2-0.1-0.2c-0.1-0.1-0.1-0.9,0-1.2l0.1-0.3l-0.1-0.2c-0.1-0.2-0.3-0.2-0.4-0.1
	c-0.1,0.1-0.2,0.5-0.2,0.7v0.2h-0.2c-0.1,0-0.2,0-0.2-0.1c0,0-0.1-0.1-0.2-0.1c-0.2,0-0.7-0.1-0.7-0.2c0,0-0.1-0.1-0.1-0.1
	s-0.1,0-0.1-0.1c0,0,0-0.1-0.1-0.1c0,0-0.1,0-0.1-0.1s-0.2-0.2-0.3-0.4c-0.3-0.3-0.6-0.8-0.6-1c0-0.1,0-0.1-0.1-0.2
	c0,0-0.1-0.3-0.1-0.6c0-0.3,0-0.6,0.1-0.6c0,0,0.1-0.1,0.1-0.2c0-0.1,0-0.2,0.1-0.2c0,0,0.1,0,0.1-0.1c0-0.1,0.3-0.6,0.4-0.7
	c0.1-0.1,0.1-0.1,0.1-0.2c0,0,0-0.1,0.1-0.2c0.1-0.1,0.9-0.5,1-0.5c0.1,0,0.1,0,0.1-0.1c0,0,0.1-0.1,0.2-0.1c0.1,0,0.2,0,0.2-0.1
	C24.4,12.1,25.4,12.1,25.4,12.2z M14,21.8c0.1,0.1,0.1,0.2,0.1,0.3s0,0.2,0.1,0.2c0,0,0.1,0.1,0.1,0.1c0,0.1,0,0.1,0.1,0.1
	c0,0,0.1,0.1,0.1,0.1c0,0.1,0,0.1,0.1,0.1c0,0,0.1,0.1,0.1,0.1c0,0.1,0,0.1,0.1,0.1c0,0,0.1,0.1,0.1,0.1s0.1,0.2,0.1,0.2
	c0.1,0.1,0.1,0.1,0.1,0.2c0,0.1,0.1,0.2,0.2,0.3c0.1,0.1,0.2,0.2,0.2,0.3c0,0.1,0.3,0.4,0.4,0.4c0,0,0.2,0.1,0.3,0.3
	c0.1,0.1,0.3,0.3,0.3,0.3c0,0,0.1,0.1,0.2,0.1c0.1,0.1,0.2,0.1,0.3,0.1c0.1,0,0.2,0,0.2,0.1c0,0,0.1,0.1,0.1,0.1s0.1,0,0.1,0.1
	c0,0,0.1,0.1,0.2,0.1c0.1,0,0.2,0,0.2,0.1c0,0,0.1,0.1,0.2,0.1c0.1,0,0.2,0,0.2,0.1c0,0,0.5,0.1,1.3,0.1h1.3v0.1
	c0,0.1,0.3,0.4,0.4,0.4c0.1,0,0.4,0.4,0.4,0.4c0,0,0,0.1,0,0.1l0,0.1h-0.5h-0.5l-0.2,0.2c-0.1,0.1-0.2,0.2-0.2,0.3
	c0,0,0.1,0.1,0.1,0.1c0,0.1,0,0.1,0.1,0.1c0.1,0,0.1,0,0.1,0.1s0.2,0.1,0.4,0.1c0.2,0,0.4,0,0.4-0.1s0.1-0.1,0.3-0.1
	c0.2,0,0.3,0,0.3-0.1c0,0,0.1-0.1,0.3-0.1s0.3,0,0.3-0.1c0,0,0.1-0.1,0.2-0.1c0.1,0,0.2,0,0.2-0.1c0,0,0.1-0.1,0.2-0.1
	c0.1,0,0.2,0,0.2-0.1c0,0,0.1-0.1,0.1-0.1s0.1,0,0.1-0.1c0,0,0.1-0.1,0.2-0.1c0.1,0,0.2,0,0.2-0.1c0,0,0.1-0.1,0.1-0.1
	s0.1,0,0.1-0.1c0,0,0.1-0.1,0.1-0.1c0.1,0,0.2-0.1,0.2-0.1c0.1-0.1,0.1-0.1,0.2-0.1s0.1-0.1,0.2-0.1c0.1-0.1,0.1-0.1,0.2-0.1
	s0.1-0.1,0.2-0.1c0.1-0.1,0.1-0.1,0.2-0.1s0.2-0.1,0.3-0.3s0.3-0.3,0.3-0.3c0.1,0,0.6-0.6,0.6-0.7c0-0.1,0.1-0.1,0.1-0.1
	c0.1,0,0.1,0,0.1-0.1s0.1-0.2,0.2-0.3c0.1-0.1,0.2-0.2,0.2-0.3c0,0,0.1-0.2,0.2-0.3c0.1-0.1,0.2-0.2,0.2-0.3c0-0.1,0.2-0.3,0.3-0.3
	h0.1v7.1c0,4.7,0,7.1-0.1,7.1c0,0-0.1,0.1-0.1,0.2c0,0.1,0,0.2-0.1,0.2c0,0-0.1,0.1-0.1,0.1s0,0.1-0.1,0.1c0,0-0.1,0.1-0.1,0.1
	c0,0.1,0,0.1-0.1,0.1c0,0-0.1,0.1-0.1,0.1s0,0.1-0.1,0.1c0,0-0.1,0.1-0.1,0.1s-0.1,0.2-0.1,0.2s-0.1,0.1-0.1,0.2
	c0,0.1-0.8,0.9-0.9,0.9c0,0-0.1,0.1-0.2,0.1c-0.1,0.1-0.1,0.1-0.2,0.1s-0.1,0-0.1,0.1c0,0-0.1,0.1-0.1,0.1c-0.1,0-0.1,0-0.1,0.1
	c0,0-0.1,0.1-0.2,0.1c-0.1,0-0.2,0-0.2,0.1c0,0-0.1,0.1-0.3,0.1s-0.3,0-0.3,0.1c0,0-0.2,0.1-0.6,0.1c-0.3,0-0.6,0-0.6-0.1
	c0,0-0.2-0.1-0.4-0.1s-0.4,0-0.4-0.1s-0.1-0.1-0.3-0.1s-0.3,0-0.3-0.1c0,0-0.1-0.1-0.2-0.1c-0.1,0-0.2,0-0.2-0.1
	c0,0-0.1-0.1-0.1-0.1s-0.1,0-0.1-0.1c0,0-0.1-0.1-0.1-0.1c-0.1,0-0.1,0-0.1-0.1c0,0-0.1-0.1-0.1-0.1s-0.1,0-0.1-0.1
	c0,0,0-0.1-0.1-0.1c-0.1,0-0.2-0.1-0.3-0.3c-0.1-0.1-0.3-0.3-0.3-0.3c-0.1,0-0.1,0-0.1-0.1s-0.1-0.2-0.2-0.3
	c-0.1-0.1-0.2-0.2-0.2-0.3c0,0-0.1-0.1-0.1-0.2s-0.1-0.1-0.1-0.2c0-0.1,0-0.1-0.1-0.1c0,0-0.1-0.1-0.1-0.2c0-0.1,0-0.2-0.1-0.2
	c0,0-0.1-0.1-0.1-0.2c0-0.1,0-0.2-0.1-0.2c0,0-0.1-0.1-0.1-0.3c0-0.2,0-0.3-0.1-0.3s-0.1-0.3-0.1-0.6c0-0.4,0-0.6,0.1-0.6
	s0.1-0.1,0.1-0.3c0-0.1,0-0.3,0.1-0.3c0,0,0.1-0.1,0.1-0.3s0-0.3,0.1-0.3c0,0,0.1-0.1,0.1-0.1c0-0.1,0-0.1,0.1-0.1
	c0,0,0.1-0.1,0.1-0.1c0-0.1,0.1-0.2,0.1-0.2s0.1-0.1,0.1-0.2c0,0,0.1-0.2,0.3-0.4c0.2-0.2,0.3-0.4,0.3-0.5c0-0.3-0.1-0.4-0.4-0.4
	c-0.2,0-0.5,0.2-0.5,0.4c0,0-0.1,0.2-0.2,0.3c-0.1,0.1-0.2,0.2-0.2,0.3s0,0.1-0.1,0.1c0,0-0.1,0.1-0.1,0.1s0,0.1-0.1,0.1
	c0,0-0.1,0.1-0.1,0.1s0,0.1-0.1,0.1c0,0-0.1,0.1-0.1,0.1s0,0.1-0.1,0.1c0,0-0.1,0.1-0.1,0.2c0,0.1,0,0.2-0.1,0.2
	c0,0-0.1,0.1-0.1,0.2c0,0.1,0,0.2-0.1,0.2c0,0-0.1,0.2-0.1,0.4c0,0.3,0,0.4-0.1,0.4c0,0-0.1,0.1-0.1,0.3c0,0.1,0,0.3,0.1,0.3
	c0,0,0.1,0.2,0.1,0.4c0,0.2,0,0.4,0.1,0.4c0,0,0.1,0.1,0.1,0.3c0,0.1,0,0.3,0.1,0.3c0,0,0.1,0.1,0.1,0.3v0.3h-0.3
	c-0.2,0-0.3,0-0.3-0.1c0,0-0.1-0.1-0.1-0.1s-0.1,0-0.1-0.1c0,0-0.1-0.1-0.1-0.1c-0.1,0-0.2-0.1-0.2-0.1c-0.1-0.1-0.1-0.1-0.2-0.1
	c-0.1,0-1.2-1.1-1.2-1.2c0,0-0.1-0.1-0.1-0.2s-0.1-0.1-0.1-0.2s0-0.1-0.1-0.1c0,0-0.1-0.1-0.1-0.1s0-0.1-0.1-0.1
	c0,0-0.1-0.1-0.1-0.1s0-0.1-0.1-0.1c0,0-0.1-0.1-0.1-0.1s0-0.1-0.1-0.1c0,0-0.1-0.1-0.1-0.1c0-0.1,0-0.1-0.1-0.1
	c0,0-0.1-0.1-0.1-0.2c0-0.1-0.1-0.3-0.4-0.6c-0.2-0.2-0.4-0.5-0.4-0.5c0-0.1-0.1-0.1-0.1-0.2c-0.1-0.1-0.1-0.1-0.1-0.2
	s0-0.1-0.1-0.1c0,0-0.1-0.1-0.1-0.1s0-0.1-0.1-0.1c0,0-0.1-0.1-0.1-0.1s0-0.1-0.1-0.1c0,0-0.1-0.1-0.1-0.2c0-0.1,0-0.2-0.1-0.2
	c0,0-0.1-0.1-0.1-0.3c0-0.1,0-0.3-0.1-0.3c0,0-0.1-0.2-0.1-0.4V31h0.1c0.1,0,0.1,0,0.1,0.1c0,0,0.1,0.1,0.2,0.1c0.1,0,0.2,0,0.2,0.1
	c0,0,0.1,0.1,0.1,0.1c0.1,0,0.1,0,0.1,0.1c0,0,0.1,0.1,0.2,0.1c0.1,0,0.2,0,0.2,0.1c0,0,0.1,0.1,0.1,0.1s0.1,0,0.1,0.1
	c0,0,0.1,0.1,0.3,0.1c0.1,0,0.3,0,0.3,0.1c0,0,0.2,0.1,0.4,0.1c0.2,0,0.4,0,0.4,0.1c0,0,0.1,0.1,0.3,0.1c0.2,0,0.3,0,0.3-0.1
	c0,0,0.1-0.1,0.3-0.1c0.2,0,0.3,0,0.3-0.1c0,0,0.1-0.1,0.2-0.1c0.1,0,0.2,0,0.2-0.1c0,0,0.1-0.1,0.2-0.1c0.1,0,0.2,0,0.2-0.1
	c0,0,0.1-0.1,0.1-0.1s0.1,0,0.1-0.1c0,0,0.1-0.1,0.1-0.1c0.1,0,0.2-0.1,0.2-0.1c0.1-0.1,0.1-0.1,0.2-0.1c0.1,0,0.1,0.1,0.2,0.1
	c0.1,0.1,0.1,0.1,0.2,0.1s0.1,0.1,0.2,0.1c0.1,0.1,0.1,0.1,0.2,0.1s0.1,0,0.1,0.1c0,0,0.1,0.1,0.2,0.1c0.1,0,0.2,0,0.2,0.1
	c0,0,0.1,0.1,0.1,0.1s0.1,0,0.1,0.1c0,0,0.1,0.1,0.2,0.1c0.1,0,0.2,0,0.2,0.1c0,0,0.3,0.1,0.8,0.1s0.8,0,0.8-0.1
	c0,0,0.1-0.1,0.3-0.1c0.1,0,0.3,0,0.3-0.1c0,0,0.1-0.1,0.1-0.1s0.1,0,0.1-0.1c0,0,0.1-0.1,0.1-0.1s0.1,0,0.1-0.1
	c0,0,0.1-0.1,0.1-0.1c0.1,0,0.1,0,0.1,0.1c0,0,0.1,0.1,0.1,0.1s0.2,0.1,0.2,0.1c0.1,0.1,0.2,0.1,0.3,0.1c0.1,0,0.2,0,0.2,0
	c0-0.1-0.2-0.2-0.3-0.2c0,0-0.2-0.1-0.3-0.3l-0.3-0.3v-0.6c0-0.6-0.1-0.8-0.3-0.8H23v0.5c0,0.3,0,0.5-0.1,0.5c0,0-0.1,0-0.1,0.1
	c0,0.1-0.2,0.3-0.3,0.3c-0.1,0-0.2,0-0.2,0.1c0,0-0.1,0.1-0.3,0.1s-0.3,0-0.3,0.1c0,0-0.2,0.1-0.6,0.1c-0.3,0-0.6,0-0.6-0.1
	c0,0-0.1-0.1-0.2-0.1c-0.1,0-0.2,0-0.2-0.1c0,0-0.1-0.1-0.2-0.1c-0.1,0-0.2,0-0.2-0.1c0,0-0.1-0.1-0.1-0.1s-0.1,0-0.1-0.1
	c0,0,0-0.1-0.1-0.1c-0.1,0-0.3-0.2-0.5-0.4l-0.4-0.4l-0.2,0.3c-0.2,0.2-0.3,0.3-0.4,0.3c-0.1,0-0.2,0.1-0.2,0.1
	c-0.1,0.1-0.2,0.1-0.3,0.1c-0.1,0-0.2,0-0.2,0.1c0,0-0.1,0.1-0.2,0.1c-0.1,0-0.2,0-0.2,0.1s-0.4,0.1-1,0.1c-0.6,0-1,0-1-0.1
	S15,31,14.9,31s-0.1,0-0.1-0.1c0,0-0.1-0.1-0.2-0.1c-0.1,0-0.2,0-0.2-0.1c0,0-0.1-0.1-0.1-0.1c-0.1,0-0.1,0-0.1-0.1
	c0,0-0.1-0.1-0.1-0.1c-0.1,0-0.1,0-0.1-0.1c0,0,0-0.1-0.1-0.1c-0.1,0-1-0.9-1-1.1c0-0.1,0-0.1-0.1-0.1c0,0-0.1-0.1-0.1-0.2
	c0-0.1,0-0.2-0.1-0.2c0,0-0.1-0.4-0.1-1c0-0.6,0-1,0.1-1c0,0,0.1-0.1,0.1-0.1c0-0.1,0-0.1,0.1-0.1c0,0,0.1-0.1,0.1-0.1
	c0-0.1,0-0.1,0.1-0.1c0,0,0.1-0.1,0.1-0.1c0-0.1,0-0.1,0.1-0.1c0,0,0.1-0.1,0.1-0.1C13,26,13,26,13,26c0,0,0.1-0.1,0.1-0.1
	s0-0.1,0.1-0.1c0,0,0.1-0.1,0.1-0.3c0-0.1,0-0.3-0.1-0.3c0,0-0.1-0.1-0.1-0.3s0-0.3-0.1-0.3c0,0-0.1-0.3-0.1-0.8S13,23,13,23
	c0,0,0.1-0.1,0.1-0.2c0-0.1,0-0.2,0.1-0.2c0,0,0.1-0.1,0.1-0.1c0-0.1,0.1-0.2,0.1-0.2c0.1-0.1,0.1-0.1,0.1-0.2
	c0-0.1,0.3-0.4,0.4-0.4C13.9,21.7,14,21.8,14,21.8z"/>
<path class="st0" d="M34.3,11.7c0,0-0.1-0.1-0.1-0.1c-0.2,0-0.5-0.1-0.5-0.1c0,0-0.1-0.1-0.2-0.1s-0.2,0-0.3-0.1c0,0-0.4-0.1-1-0.1
	c-0.6,0-0.9,0-0.9,0.1c0,0-0.1,0.1-0.1,0.1s-0.2,0-0.2,0.1c-0.1,0-0.2,0.1-0.3,0.1c-0.1,0.1-0.2,0.1-0.3,0.2
	c-0.1,0.1-0.2,0.1-0.2,0.1c0,0-0.1,0.1-0.2,0.1s-0.1,0.1-0.2,0.1c-0.1,0-0.1,0-0.1,0.1c0,0.1-0.1,0.2-0.1,0.2s-0.1,0.2-0.1,0.2
	s0,0.1-0.1,0.1c0,0-0.1,0-0.1,0.1c0,0.1-0.1,0.3-0.2,0.4c0,0-0.1,0.1-0.1,0.3l-0.1,0.2l0,11.7l0,11.7l0.1,0.4
	c0.1,0.4,0.2,0.6,0.5,1.3c0.3,0.6,0.3,0.7,0.5,0.9c0.1,0.1,0.2,0.3,0.3,0.3c0.1,0.1,0.1,0.1,0.2,0.1c0,0,0.1,0.1,0.2,0.2
	c0.2,0.2,0.7,0.4,1.1,0.5c0.1,0,0.3,0.1,0.4,0.1c0.6,0.2,2.6,0.2,3.2,0.1c0.2,0,0.4-0.1,0.6-0.1c0.1,0,0.2-0.1,0.2-0.1
	c0,0,0.1-0.1,0.1-0.1c0.1,0,0.5-0.1,0.5-0.2c0,0,0.1,0,0.1,0s0.1,0,0.1-0.1c0,0,0-0.1,0.1-0.1c0.1,0,0.9-0.8,1.1-1.1
	c0.1-0.1,0.2-0.2,0.2-0.2c0.2,0,1.2-0.3,1.3-0.3c0,0,0.1-0.1,0.2-0.1c0.1,0,0.5-0.2,0.8-0.4c0.1-0.1,0.2-0.1,0.2-0.1
	c0,0,0.1,0,0.1-0.1s0.1-0.1,0.2-0.2c0.1-0.1,0.3-0.2,0.5-0.4c0.3-0.3,0.9-1.1,0.9-1.3c0,0,0-0.1,0.1-0.1c0,0,0.1-0.1,0.1-0.2
	c0.2-0.4,0.2-0.5,0.3-0.6c0-0.1,0.1-0.2,0.1-0.3c0-0.1,0.2-0.3,0.5-0.6c0.6-0.6,1-1.4,1.2-2.1c0.1-0.4,0.2-1.6,0.1-2l0-0.4l0.2-0.3
	c0.1-0.2,0.2-0.3,0.2-0.4c0-0.1,0.2-0.5,0.3-0.6c0.1-0.1,0.2-1.8,0.1-2.5c0-0.2-0.1-0.4-0.2-0.4c-0.1-0.1-0.2-0.2-0.3-0.4
	c-0.1-0.2-0.2-0.3-0.2-0.3c-0.1,0-0.2-0.3-0.1-0.4c0,0,0.1-0.1,0.1-0.2c0-0.1,0-0.2,0.1-0.2c0,0,0.1-0.3,0.1-0.9
	c0-0.5,0-0.9-0.1-0.9c0,0-0.1-0.1-0.1-0.2c0-0.1-0.6-1.3-0.7-1.4c-0.1-0.1-0.4-0.3-0.5-0.4l-0.2-0.2v-0.3c0-0.5-0.2-1.2-0.5-1.7
	c0-0.1-0.1-0.2-0.1-0.2c0-0.1,0-0.1-0.1-0.1c0,0-0.1-0.1-0.1-0.2c-0.1-0.1-0.1-0.2-0.2-0.3c-0.1-0.1-0.1-0.1-0.1-0.2
	c0-0.2-1.2-1.2-1.4-1.2c-0.1,0-0.1,0-0.1-0.1c0,0,0-0.1-0.1-0.1c-0.2,0-0.4-0.2-0.5-0.3c0-0.1-0.1-0.2-0.1-0.2c0,0-0.1,0-0.1-0.1
	s-0.1-0.1-0.1-0.2s-0.1-0.2-0.1-0.2c0-0.1-0.5-0.6-0.7-0.6c0,0-0.1-0.1-0.2-0.1c-0.1-0.1-0.2-0.1-0.2-0.1s-0.1,0-0.1-0.1
	c0,0,0-0.1-0.1-0.1c-0.1,0-0.1-0.1-0.1-0.1C38.5,14,38.4,14,38.2,14c-0.1,0-0.2,0-0.2,0c0,0-0.1-0.1-0.2-0.1c-0.1,0-0.2,0-0.2-0.1
	c0,0-0.1-0.1-0.3-0.1s-0.2,0-0.3-0.1c0,0-0.2-0.1-0.3-0.1c-0.2,0-0.3,0-0.3-0.1c0,0-0.1-0.1-0.3-0.1c-0.1,0-0.2,0-0.2-0.1
	c0,0-0.1-0.1-0.3-0.1h-0.3v-0.1c0-0.1,0-0.1-0.1-0.1c0,0-0.1-0.1-0.1-0.1s0-0.1-0.1-0.1s-0.1-0.1-0.1-0.1c0-0.1-0.1-0.2-0.2-0.3
	 M33.1,12.2c0,0,0.1,0.1,0.2,0.1c0.1,0,0.2,0,0.2,0.1c0,0,0.1,0.1,0.2,0.1c0.1,0,0.2,0,0.2,0.1c0,0,0,0.1,0.1,0.1
	c0.1,0,0.8,0.7,0.8,0.8c0,0.1,0,0.1,0.1,0.1c0,0,0.1,0.1,0.1,0.1s0.1,0.2,0.1,0.2c0.1,0.1,0.1,0.2,0.1,0.3c0,0.1,0,0.2,0.1,0.2
	c0,0,0.1,0.3,0.1,0.8s0,0.8-0.1,0.8c0,0-0.1,0.1-0.1,0.2c0,0.1,0,0.2-0.1,0.2c0,0-0.1,0-0.1,0.1c0,0.1-0.9,1.1-1,1.1
	c-0.1,0-0.1,0-0.1,0.1c0,0-0.1,0.1-0.1,0.1s-0.1,0-0.1,0.1c0,0-0.1,0.1-0.2,0.1c-0.1,0-0.2,0-0.2,0.1s-0.2,0.1-0.4,0.1h-0.4v-0.2
	c0-0.1,0-0.2-0.1-0.2c0,0-0.1-0.1-0.1-0.2c0-0.2-0.1-0.3-0.3-0.3h-0.2v0.2c0,0.1,0,0.2,0.1,0.2c0,0,0.1,0.1,0.1,0.2
	c0,0.1,0,0.2,0.1,0.2c0,0,0.1,0.2,0.1,0.4c0,0.2,0,0.4-0.1,0.4c0,0-0.1,0.1-0.1,0.2c0,0.1,0,0.2-0.1,0.2c0,0-0.1,0.1-0.1,0.3
	c0,0.2,0,0.3,0,0.3c0.1,0,0.3-0.3,0.3-0.4c0-0.1,0-0.1,0.1-0.1c0,0,0.1,0,0.1-0.1c0-0.1,0.2-0.3,0.3-0.3c0.1,0,0.1,0,0.1-0.1
	c0,0,0.1-0.1,0.3-0.1c0.1,0,0.3,0,0.3-0.1c0,0,0.1-0.1,0.3-0.1s0.3,0,0.3-0.1c0,0,0.1-0.1,0.1-0.1s0.1,0,0.1-0.1
	c0,0,0.1-0.1,0.1-0.1c0.1,0,0.2-0.1,0.2-0.1c0.1-0.1,0.1-0.1,0.2-0.1c0.1,0,0.2-0.1,0.3-0.2c0.1-0.1,0.2-0.2,0.3-0.2
	c0.1,0,0.3-0.2,0.3-0.3c0-0.1,0.1-0.1,0.1-0.2c0.1-0.1,0.1-0.1,0.1-0.2c0-0.1,0-0.1,0.1-0.1c0,0,0.1-0.1,0.1-0.1
	c0-0.1,0-0.1,0.1-0.1c0,0,0.1-0.1,0.1-0.3c0-0.1,0-0.3,0.1-0.3c0,0,0.1-0.2,0.1-0.4s0-0.4,0.1-0.4c0,0,0.1-0.1,0.1-0.3v-0.3h0.4
	c0.2,0,0.4,0,0.4,0.1c0,0,0.1,0.1,0.3,0.1c0.2,0,0.3,0,0.3,0.1c0,0,0.1,0.1,0.2,0.1c0.1,0,0.2,0,0.2,0.1c0,0,0.1,0.1,0.1,0.1
	s0.1,0,0.1,0.1c0,0,0,0.1,0.1,0.1c0.1,0,0.2,0.1,0.3,0.2c0.1,0.1,0.2,0.2,0.2,0.2c0.1,0,0.6,0.6,0.6,0.7c0,0,0.1,0.1,0.1,0.2
	c0.1,0.1,0.1,0.1,0.1,0.2s0,0.1,0.1,0.1c0,0,0.1,0,0.1,0.1c0,0.2,0.3,0.4,0.5,0.4c0.1,0,0.2,0,0.2,0.1c0,0,0.1,0.1,0.2,0.1
	c0.1,0,0.2,0.1,0.3,0.1c0.1,0.1,0.1,0.1,0.2,0.1c0.1,0,0.1,0.1,0.2,0.1c0.1,0.1,0.1,0.1,0.2,0.1c0.1,0,0.1,0,0.1,0.1
	c0,0.1,0,0.1,0.1,0.1c0.1,0,0.1,0,0.1,0.1s0.1,0.2,0.2,0.3c0.1,0.1,0.2,0.2,0.2,0.3s0,0.1,0.1,0.1c0,0,0.1,0.1,0.1,0.1
	s0,0.1,0.1,0.1c0,0,0.1,0.1,0.1,0.2c0,0.1,0,0.2,0.1,0.2c0,0,0.1,0.1,0.1,0.3c0,0.2,0,0.3,0.1,0.3c0,0,0.1,0.3,0.1,0.6
	c0,0.4-0.1,0.8-0.1,1c0,0.2-0.1,0.4-0.1,0.5c0,0.1-0.1,0.3-0.1,0.4c0,0.1-0.1,0.3-0.1,0.3c0,0.1-0.1,0.2-0.1,0.2
	c0,0.1-0.1,0.2-0.1,0.2c-0.1,0.1-0.3,0.4-0.3,0.4c0,0.1-0.5,0.7-0.6,0.7c0,0-0.2,0.1-0.2,0.2c-0.1,0.1-0.2,0.2-0.3,0.2
	s-0.1,0-0.1,0.1c0,0-0.1,0.1-0.2,0.1c-0.1,0-0.2,0-0.2,0.1c0,0-0.1,0.1-0.1,0.1s-0.1,0-0.1,0.1S39.5,25,39.2,25
	c-0.3,0-0.5,0-0.5,0.1c0,0-0.2,0.1-0.4,0.1s-0.4,0-0.4-0.1c0,0-0.1-0.1-0.3-0.1h-0.3v-0.3c0-0.1,0-0.3,0.1-0.3c0,0,0.1-0.2,0.1-0.5
	s0-0.5,0.1-0.5c0,0,0.1-0.2,0.1-0.4c0-0.3,0-0.4,0.1-0.4c0.1,0,0.2-0.1,0.3-0.2c0.1-0.1,0.2-0.3,0.2-0.3c0-0.1,0-0.1,0.1-0.1
	c0,0,0.1,0,0.1-0.1c0,0-0.1-0.1-0.2-0.1H38l-0.2,0.3l-0.2,0.3h-0.5c-0.3,0-0.5,0-0.5-0.1c0,0-0.1-0.1-0.3-0.1s-0.3,0-0.3,0
	c0,0,0.1,0.1,0.2,0.2c0.1,0.1,0.2,0.2,0.4,0.2c0.1,0,0.2,0,0.2,0.1c0,0,0.1,0.1,0.1,0.1h0.1v0.8c0,0.5,0,0.8-0.1,0.8
	c0,0-0.1,0.1-0.1,0.2c0,0.1,0,0.2-0.1,0.2c0,0-0.1,0.1-0.1,0.2c0,0.1-0.1,0.2-0.1,0.3c-0.1,0.1-0.1,0.1-0.1,0.2
	c0,0.1-0.3,0.4-0.4,0.4c-0.1,0-0.1,0.1-0.2,0.1c-0.1,0.1-0.2,0.1-0.3,0.1c-0.1,0-0.2,0-0.2,0.1c0,0-0.1,0.1-0.3,0.1s-0.3,0-0.3,0.1
	c0,0-0.1,0.1-0.3,0.1c-0.2,0-0.3,0-0.3-0.1c0,0-0.1-0.1-0.1-0.1s-0.1,0-0.1-0.1c0,0-0.1-0.1-0.2-0.1c-0.1,0-0.2-0.1-0.3-0.1
	c-0.1-0.1-0.1-0.1-0.2-0.1c-0.1,0-0.1-0.1-0.2-0.1c-0.1-0.1-0.1-0.1-0.2-0.1s-0.2-0.1-0.3-0.3c-0.1-0.1-0.3-0.3-0.3-0.3
	c-0.1,0-0.1-0.1-0.1-0.1c0-0.1,0-0.1-0.1-0.1c-0.1,0-0.1,0-0.1-0.1c0-0.1,0-0.1-0.1-0.1c-0.1,0-0.1,0-0.1-0.1c0-0.1-0.1-0.2-0.3-0.3
	c-0.1-0.1-0.3-0.3-0.3-0.3c0,0-0.1-0.1-0.1-0.2s-0.1-0.1-0.1-0.2s-0.1-0.1-0.1-0.2c-0.1-0.1-0.1-0.1-0.1-0.2c0-0.1,0-0.1-0.1-0.1
	c0,0-0.1-0.1-0.1-0.1c0-0.1,0-0.1-0.1-0.1c0,0-0.1-0.1-0.1-0.1c0-0.1,0-0.1-0.1-0.1c0,0-0.1-0.1-0.1-0.1c0-0.1,0-0.1-0.1-0.1
	c0,0-0.1-0.1-0.1-0.2c0-0.1,0-0.2-0.1-0.2c0,0-0.1-0.1-0.1-0.1c0-0.1,0-0.1-0.1-0.1c0,0-0.1-0.1-0.1-0.1c0-0.1,0-0.1-0.1-0.1
	c0,0-0.1-0.1-0.1-0.3c0-0.1,0-0.3-0.1-0.3c0,0-0.1-1.2-0.1-3.3s0-3.3,0.1-3.3c0,0,0.1-0.1,0.1-0.1s0-0.1,0.1-0.1c0,0,0.1,0,0.1-0.1
	c0-0.1,0.8-0.9,0.9-0.9c0,0,0.1-0.1,0.2-0.1c0.1-0.1,0.2-0.1,0.3-0.1c0.1,0,0.2,0,0.2-0.1c0,0,0.1-0.1,0.1-0.1s0.1,0,0.1-0.1
	c0,0,0.3-0.1,0.7-0.1C32.8,12.1,33.1,12.1,33.1,12.2z M43.7,22.1c0.2,0.3,0.5,0.7,0.5,0.9c0,0.1,0,0.2,0.1,0.2
	c0.1,0.1,0,1.7-0.1,1.9c-0.1,0.2-0.1,0.5,0,0.7c0.1,0.1,0.1,0.2,0.2,0.2c0,0,0,0.1,0,0.1c0,0.1,0,0.1,0.1,0.1c0,0,0.1,0.1,0.1,0.1
	c0,0.1,0,0.1,0.1,0.1c0,0,0.1,0,0.1,0.1c0,0.1,0,0.1,0.1,0.2c0,0.1,0.1,0.2,0.1,0.3c0.1,0.3,0.1,1.8,0,1.8c0,0-0.1,0-0.1,0.1
	c0,0.1-0.2,0.4-0.2,0.4c0,0-0.1,0-0.1,0.1c0,0.1-0.5,0.7-0.6,0.7c0,0-0.2,0.1-0.3,0.2c-0.1,0.1-0.3,0.2-0.4,0.2
	c-0.1,0-0.1,0-0.1,0.1s-0.1,0.1-0.1,0.1c-0.1,0-0.2,0.1-0.4,0.1C42.4,31,42.2,31,42.1,31s-0.2,0-0.2,0.1c0,0-0.3,0.1-0.7,0.1
	c-0.3,0-0.6,0-0.7-0.1S40.4,31,40.3,31S40,31,40,30.9c0,0-0.1-0.1-0.2-0.1c-0.1,0-0.2,0-0.2-0.1c0,0-0.1-0.1-0.2-0.1
	c-0.1,0-0.1,0-0.1-0.1c0,0,0-0.1-0.1-0.1s-0.2-0.1-0.4-0.3c-0.2-0.1-0.3-0.3-0.3-0.3c0,0-0.2,0.1-0.3,0.2c-0.5,0.5-0.7,0.6-1.4,0.9
	c-0.2,0.1-1.7,0.1-1.8,0c0,0-0.1-0.1-0.2-0.1c-0.1,0-0.2,0-0.3-0.1l-0.2-0.1v-0.5c0-0.6-0.1-0.7-0.3-0.7h-0.2v0.6V31l-0.4,0.4
	c-0.2,0.2-0.4,0.4-0.4,0.5c0,0,0.1,0,0.3,0h0.3l0.2-0.2c0.1-0.1,0.2-0.2,0.2-0.1c0,0,0.1,0.1,0.1,0.1s0.1,0,0.2,0.1
	c0.1,0,0.2,0.1,0.3,0.1c0.1,0,0.2,0.1,0.3,0.1c0.1,0,0.2,0.1,0.4,0.1c0.2,0,0.3,0,0.3,0.1c0,0,0.2,0.1,0.3,0.1c0.2,0,0.3,0,0.3-0.1
	c0,0,0.1-0.1,0.3-0.1c0.3,0,0.6-0.1,0.9-0.3c0.1-0.1,0.3-0.1,0.3-0.1s0.1,0,0.1-0.1c0,0,0.1-0.1,0.2-0.1c0.1-0.1,0.2-0.1,0.3-0.2
	c0.2-0.2,0.4-0.2,0.6,0c0.1,0.1,0.2,0.2,0.3,0.2c0.1,0,0.1,0,0.1,0.1c0,0,0.1,0.1,0.2,0.1c0.1,0,0.1,0,0.1,0.1c0,0,0.1,0.1,0.2,0.1
	c0.1,0,0.2,0,0.3,0.1c0.4,0.2,1.2,0.3,2,0.1c0.2,0,0.4-0.1,0.5-0.1c0.1,0,0.2-0.1,0.2-0.1s0.1-0.1,0.1-0.1c0.1,0,0.1,0,0.2-0.1
	c0,0,0.1-0.1,0.2-0.1c0.1,0,0.2,0,0.2-0.1c0,0,0-0.1,0.1-0.1c0.1,0,0.4-0.1,0.4-0.2c0.1-0.1,0.1,0.1,0.1,0.6c0,0.3,0,0.6-0.1,0.8
	c-0.1,0.3-0.2,0.5-0.3,0.6c0,0.1-0.1,0.2-0.2,0.4c-0.1,0.1-0.2,0.3-0.3,0.4c-0.1,0.1-0.2,0.2-0.2,0.2c0,0-0.1,0.2-0.3,0.4
	c-0.2,0.2-0.3,0.3-0.3,0.4c0,0,0,0.1-0.1,0.2c0,0.1-0.1,0.2-0.1,0.3c0,0.1-0.1,0.2-0.1,0.2s0,0.1-0.1,0.1c0,0-0.1,0.1-0.1,0.1
	s0,0.1-0.1,0.1c0,0-0.1,0.1-0.1,0.1c-0.1,0.2-0.2,0.5-0.4,0.7c-0.1,0.1-0.2,0.2-0.2,0.3c0,0.1-0.8,0.8-0.8,0.8c0,0-0.1,0-0.1,0.1
	c-0.1,0.1-0.6,0.4-0.8,0.4c-0.1,0-0.1,0-0.2,0.1c0,0-0.1,0.1-0.2,0.1H39v-0.2c0-0.1,0-0.2,0.1-0.3c0,0,0.1-0.1,0.1-0.2
	c0-0.1,0-0.2,0.1-0.2c0.1-0.1,0.2-1.7,0.1-2.2c-0.1-0.7-0.4-1.4-0.8-1.9c-0.1-0.1-0.2-0.3-0.2-0.3c0,0-0.1-0.2-0.3-0.3
	c-0.2-0.2-0.3-0.3-0.5-0.3c-0.2,0-0.4,0.1-0.4,0.3c0,0.1,0,0.1-0.1,0.1c-0.1,0-0.1,0.2,0.2,0.4c0.1,0.1,0.3,0.2,0.3,0.2
	c0,0,0.1,0,0.1,0.1c0,0,0.1,0.2,0.2,0.3c0.1,0.1,0.2,0.3,0.2,0.3s0.1,0.2,0.1,0.3s0.1,0.3,0.1,0.4c0,0.1,0,0.1,0.1,0.2
	c0.1,0,0.1,0.7,0.2,1.1c0,0.4-0.1,1.2-0.2,1.3c0,0-0.1,0.1-0.1,0.2c0,0.1,0,0.2-0.1,0.3c0,0.1-0.1,0.3-0.2,0.4
	c-0.1,0.2-0.2,0.4-0.3,0.4c-0.1,0.1-0.1,0.2-0.1,0.2c0,0.1-0.8,0.8-0.8,0.8c0,0-0.1,0-0.1,0.1c-0.1,0.1-0.3,0.2-0.5,0.3
	c-0.1,0-0.2,0.1-0.4,0.2c-0.2,0.1-0.3,0.1-0.4,0.1c-0.1,0-0.2,0-0.2,0.1c0,0.2-2.5,0.3-2.6,0.1c0,0-0.1-0.1-0.2-0.1
	c-0.1,0-0.2,0-0.3-0.1c-0.1,0-0.2-0.1-0.3-0.1c-0.1,0-0.2-0.1-0.2-0.1c0,0-0.1-0.1-0.1-0.1c-0.1,0-1.3-1.2-1.3-1.3
	c0-0.1,0-0.1-0.1-0.1c0,0-0.1-0.1-0.1-0.1c0-0.1-0.1-0.2-0.1-0.3C30.1,38.2,30,38.1,30,38c0-0.1-0.1-0.2-0.1-0.3
	c0-0.1-0.1-0.2-0.1-0.2c0-0.1,0-0.1-0.1-0.2c-0.1-0.1-0.1-14,0-14c0.1-0.1,0.3,0.2,0.3,0.3c0,0.1,0,0.1,0.1,0.1c0,0,0.1,0.1,0.2,0.2
	c0.1,0.1,0.1,0.2,0.2,0.3c0,0,0.1,0.2,0.2,0.3c0.2,0.3,1,1.1,1.3,1.3c0.1,0.1,0.3,0.3,0.4,0.3c0.1,0.1,0.2,0.2,0.3,0.2
	c0,0,0.1,0,0.1,0.1s0.1,0.1,0.2,0.1c0.1,0,0.2,0.1,0.2,0.1s0.1,0.1,0.1,0.1s0.1,0,0.1,0.1c0,0,0.1,0.1,0.1,0.1s0.1,0,0.1,0
	c0,0.1,0.3,0.2,0.4,0.2c0,0,0.1,0,0.1,0.1c0,0,0.1,0.1,0.1,0.1c0.1,0,0.1,0,0.2,0.1c0,0,0.1,0.1,0.2,0.1c0.1,0,0.2,0,0.2,0.1
	c0,0,0.1,0.1,0.2,0.1c0.1,0,0.2,0,0.2,0.1s0.1,0.1,0.2,0.1c0.1,0,0.4,0.1,0.5,0.1c0.2,0,0.6,0.1,0.8,0.1l0.5,0l0.2-0.2
	c0.2-0.2,0.2-0.3,0-0.6l-0.1-0.2h-0.3c-0.3,0-1.1-0.1-1.1-0.2c0-0.1,0.2-0.2,0.2-0.2c0,0,0.2-0.2,0.5-0.4l0.4-0.4l0.9,0.1
	c0.5,0,0.9,0,0.9,0c0,0,0.2-0.1,0.4-0.1s0.3,0,0.3-0.1c0,0,0.1-0.1,0.2-0.1c0.1,0,0.2,0,0.2-0.1c0,0,0.1-0.1,0.2-0.1
	c0.1,0,0.2,0,0.2-0.1c0,0,0.1-0.1,0.1-0.1c0.3,0,2-1.5,2-1.7c0-0.1,0.2-0.3,0.3-0.4s0.1-0.2,0.1-0.2c0-0.1,0.1-0.2,0.1-0.2
	c0-0.1,0.1-0.2,0.1-0.3s0.1-0.2,0.1-0.3c0-0.2,0.1-0.4,0.3-0.4C43.4,21.9,43.6,22,43.7,22.1z"/>
<path class="st0" d="M0.5,27.1c-0.1,0.1-0.2,0.3-0.2,0.3c0,0,0,0.1-0.1,0.1S0.1,27.7,0.1,28c0,0.2,0,0.4,0.1,0.4s0.1,0.1,0.1,0.2
	c0,0.2,0.2,0.5,0.4,0.5c0.1,0,0.1,0,0.1,0.1c0,0,1.5,0.1,4.3,0.1s4.3,0,4.3-0.1c0,0,0.1-0.1,0.2-0.1h0.2l0-0.2
	c0-0.1,0.1-0.2,0.1-0.3c0.1-0.1,0.1-0.8,0-0.9c0,0-0.1-0.1-0.1-0.3c0-0.2-0.1-0.4-0.3-0.3c0,0-0.1,0-0.2-0.1l-0.1-0.1H5.1l-4.4,0
	L0.5,27.1z"/>
<path class="st0" d="M47.6,27c-0.2,0.1-0.2,0.2-0.4,0.4c-0.2,0.3-0.2,1.2,0.1,1.4c0,0,0.1,0.1,0.1,0.1c0,0,0.1,0.1,0.3,0.2l0.3,0.1
	l3.9,0c2.2,0,4.1,0,4.3-0.1l0.3,0l0.2-0.3l0.2-0.3l0-0.6l0-0.6l-0.2-0.2c-0.1-0.1-0.3-0.2-0.3-0.2c-0.1,0-0.1,0-0.1-0.1
	C56.3,26.9,47.8,26.9,47.6,27z"/>
<path class="st0" d="M22.4,42.5C22.4,42.5,22.4,42.6,22.4,42.5c-0.2,0.1-0.5,0.4-0.5,0.5c0,0.1,0,0.1-0.1,0.1c-0.1,0-0.1,0.1,0,0.4
	c0,0.2,0.1,0.4,0.1,0.5c0,0.2,0.2,0.4,0.5,0.5c0.3,0.1,12.1,0.1,12.4,0c0.4-0.1,0.6-0.5,0.6-1.1V43l-0.2-0.2c-0.4-0.4,0-0.4-6.7-0.4
	C24.5,42.4,22.4,42.5,22.4,42.5z"/>
<path class="st0" d="M22.3,45.5c-0.2,0.1-0.4,0.4-0.4,0.5c0,0,0,0.1-0.1,0.1c-0.1,0-0.1,0.1,0,0.4c0.1,0.5,0.2,0.7,0.5,0.8l0.2,0.1
	h6h6l0.2-0.1c0.3-0.1,0.5-0.3,0.6-0.6c0.2-0.5,0-1.1-0.5-1.3C34.7,45.4,22.5,45.4,22.3,45.5z"/>
<path class="st0" d="M22.6,48.3C22.6,48.3,22.6,48.4,22.6,48.3c-0.2,0.1-0.4,0.2-0.7,0.4l-0.2,0.2l0.1,0.5c0.1,0.5,0.2,0.7,0.4,0.8
	l0.2,0.1h6.3h6.3l0.2-0.1c0.3-0.2,0.5-0.9,0.3-1.3c-0.1-0.3-0.5-0.6-0.7-0.6c-0.1,0-0.1,0-0.1-0.1c0,0-0.2-0.1-0.5-0.1
	c-0.3,0-0.5,0-0.5,0.1c0,0-1.8,0.1-5.1,0.1s-5.1,0-5.1-0.1c0,0-0.1-0.1-0.3-0.1C22.8,48.2,22.6,48.3,22.6,48.3z"/>
<path class="st0" d="M24.3,51.3c-0.1,0.1-0.1,0.4,0,0.4c0,0,0.1,0.1,0.1,0.1c0,0.2,0.4,0.7,0.8,0.9c0.2,0.1,0.3,0.2,0.3,0.3
	c0,0,0.1,0.1,0.1,0.1c0,0,0.2,0.1,0.3,0.1c0.1,0.1,0.3,0.1,0.3,0.1c0.1,0,0.1,0,0.2,0.1c0,0,0.1,0.1,0.2,0.1s0.2,0,0.2,0.1
	c0,0,0.1,0.1,0.2,0.1c0.1,0,0.2,0,0.2,0.1c0,0.1,1.8,0.1,2.3,0.1c1-0.1,1.4-0.2,1.5-0.3c0,0,0.1-0.1,0.2-0.1c0.1,0,0.2-0.1,0.4-0.1
	c0.1-0.1,0.3-0.2,0.4-0.2c0.1,0,0.2-0.1,0.3-0.2c0.1-0.1,0.1-0.1,0.2-0.1c0.1,0,0.2-0.2,0.5-0.6c0.1-0.1,0.1-0.2,0.1-0.3
	c0-0.1,0-0.2,0.1-0.2c0.1,0,0.1-0.3,0-0.4c-0.1-0.1-0.3-0.1-0.3,0c0,0-1.4,0.1-4,0.1c-2.6,0-4,0-4-0.1
	C24.7,51.2,24.3,51.2,24.3,51.3z"/>
<path class="st0" d="M26.5,57c0,0-0.3,0.1-0.8,0.1s-0.8,0-0.8,0.1c0,0-0.2,0.1-0.6,0.1c-0.3,0-0.6,0-0.6,0.1c0,0-0.2,0.1-0.6,0.1
	c-0.3,0-0.6,0-0.6,0.1c0,0-0.1,0.1-0.3,0.1s-0.3,0-0.3,0.1c0,0-0.1,0.1-0.3,0.1c-0.2,0-0.3,0-0.3,0.1c0,0-0.1,0.1-0.1,0.1
	s-0.1,0-0.1,0.1c0,0-0.1,0.1-0.3,0.1s-0.3,0-0.3,0.1c0,0-0.1,0.1-0.1,0.1c-0.1,0-0.1,0-0.1,0.1c0,0,0,0.1-0.1,0.1
	c-0.1,0-0.2,0.1-0.3,0.2l-0.2,0.2l0.2,0.2c0.1,0.1,0.3,0.2,0.3,0.2c0.1,0,0.1,0,0.1,0.1c0,0,0.1,0.1,0.1,0.1c0.1,0,0.1,0,0.1,0.1
	c0,0,0.1,0.1,0.1,0.1s0.1,0,0.1,0.1c0,0,0.1,0.1,0.2,0.1c0.1,0,0.2,0,0.2,0.1c0,0,0.1,0.1,0.3,0.1c0.1,0,0.3,0,0.3,0.1
	c0,0,0.1,0.1,0.3,0.1c0.2,0,0.3,0,0.3,0.1c0,0,0.2,0.1,0.4,0.1c0.2,0,0.4,0,0.4,0.1c0,0,0.2,0.1,0.4,0.1c0.3,0,0.4,0,0.4,0.1
	c0,0,0.3,0.1,0.7,0.1s0.7,0,0.7,0.1c0,0,1.1,0.1,3.2,0.1s3.2,0,3.2-0.1c0,0,0.2-0.1,0.6-0.1s0.6,0,0.6-0.1c0,0,0.2-0.1,0.5-0.1
	c0.3,0,0.5,0,0.5-0.1c0,0,0.2-0.1,0.4-0.1s0.4,0,0.4-0.1c0,0,0.1-0.1,0.3-0.1c0.2,0,0.3,0,0.3-0.1c0,0,0.1-0.1,0.1-0.1
	s0.1,0,0.1-0.1c0,0,0.1-0.1,0.3-0.1s0.3,0,0.3-0.1c0,0,0.1-0.1,0.1-0.1s0.1,0,0.1-0.1c0,0,0.1-0.1,0.2-0.1c0.2,0,0.8-0.6,0.7-0.6
	c0,0-0.1-0.1-0.1-0.1c0-0.1-0.2-0.3-0.3-0.3c-0.1,0-0.1,0-0.1-0.1c0,0-0.1-0.1-0.2-0.1c-0.1,0-0.2,0-0.2-0.1c0,0-0.1-0.1-0.3-0.1
	s-0.3,0-0.3-0.1c0,0-0.1-0.1-0.3-0.1c-0.1,0-0.3,0-0.3-0.1c0,0-0.1-0.1-0.1-0.1c-0.1,0-0.1,0-0.1-0.1c0,0-0.1-0.1-0.3-0.1
	s-0.3,0-0.3-0.1c0,0-0.2-0.1-0.6-0.1c-0.3,0-0.6,0-0.6-0.1c0,0-0.2-0.1-0.6-0.1s-0.6,0-0.6-0.1c0,0-0.3-0.1-0.8-0.1
	c-0.5,0-0.8,0-0.8-0.1c0,0-0.8-0.1-2.2-0.1S26.5,57,26.5,57z"/>
</svg>
