<?xml version="1.0" encoding="utf-8"?>
<!-- Generator: Adobe Illustrator 21.1.0, SVG Export Plug-In . SVG Version: 6.00 Build 0)  -->
<svg version="1.1" id="CheckList" xmlns="http://www.w3.org/2000/svg" xmlns:xlink="http://www.w3.org/1999/xlink" x="0px" y="0px"
	 viewBox="0 0 42 61" style="enable-background:new 0 0 42 61;" xml:space="preserve">
<path id="Fill-264" d="M35.8,19.6l-4,5c0,0,0,0,0,0c0,0,0,0,0,0c-0.1,0.1-0.1,0.1-0.2,0.1c0,0-0.1,0.1-0.1,0.1
	C31.3,25,31.1,25,31,25l0,0l0,0c-0.1,0-0.2,0-0.4-0.1c0,0-0.1,0-0.1-0.1c-0.1,0-0.1-0.1-0.2-0.1c0,0,0,0,0,0c0,0,0,0,0,0l-2-2
	c-0.4-0.4-0.4-1,0-1.4c0.4-0.4,1-0.4,1.4,0l1.2,1.2l3.3-4.1c0.3-0.4,1-0.5,1.4-0.2C36.1,18.6,36.1,19.2,35.8,19.6L35.8,19.6z
	 M35.8,28.6l-4,5c0,0,0,0,0,0c0,0,0,0,0,0c-0.1,0.1-0.1,0.1-0.2,0.1c0,0-0.1,0.1-0.1,0.1C31.3,34,31.1,34,31,34l0,0l0,0
	c-0.1,0-0.2,0-0.4-0.1c0,0-0.1,0-0.1-0.1c-0.1,0-0.1-0.1-0.2-0.1c0,0,0,0,0,0c0,0,0,0,0,0l-2-2c-0.4-0.4-0.4-1,0-1.4
	c0.4-0.4,1-0.4,1.4,0l1.2,1.2l3.3-4.1c0.3-0.4,1-0.5,1.4-0.2C36.1,27.6,36.1,28.2,35.8,28.6L35.8,28.6z M35.8,37.6l-4,5c0,0,0,0,0,0
	c0,0,0,0,0,0c-0.1,0.1-0.1,0.1-0.2,0.1c0,0-0.1,0.1-0.1,0.1C31.3,43,31.1,43,31,43l0,0l0,0c-0.1,0-0.2,0-0.4-0.1c0,0-0.1,0-0.1-0.1
	c-0.1,0-0.1-0.1-0.2-0.1c0,0,0,0,0,0c0,0,0,0,0,0l-2-2c-0.4-0.4-0.4-1,0-1.4c0.4-0.4,1-0.4,1.4,0l1.2,1.2l3.3-4.1
	c0.3-0.4,1-0.5,1.4-0.2C36.1,36.6,36.1,37.2,35.8,37.6L35.8,37.6z M35.8,46.6l-4,5c0,0,0,0,0,0c0,0,0,0,0,0
	c-0.1,0.1-0.1,0.1-0.2,0.1c0,0-0.1,0.1-0.1,0.1C31.3,52,31.1,52,31,52l0,0l0,0c-0.1,0-0.2,0-0.4-0.1c0,0-0.1,0-0.1-0.1
	c-0.1,0-0.1-0.1-0.2-0.1c0,0,0,0,0,0c0,0,0,0,0,0l-2-2c-0.4-0.4-0.4-1,0-1.4c0.4-0.4,1-0.4,1.4,0l1.2,1.2l3.3-4.1
	c0.3-0.4,1-0.5,1.4-0.2C36.1,45.6,36.1,46.2,35.8,46.6L35.8,46.6z M24,23H8c-0.6,0-1-0.4-1-1c0-0.6,0.4-1,1-1h16c0.6,0,1,0.4,1,1
	C25,22.6,24.6,23,24,23L24,23z M24,32H8c-0.6,0-1-0.4-1-1c0-0.6,0.4-1,1-1h16c0.6,0,1,0.4,1,1C25,31.6,24.6,32,24,32L24,32z M24,41
	H8c-0.6,0-1-0.4-1-1c0-0.6,0.4-1,1-1h16c0.6,0,1,0.4,1,1C25,40.6,24.6,41,24,41L24,41z M24,50H8c-0.6,0-1-0.4-1-1c0-0.6,0.4-1,1-1
	h16c0.6,0,1,0.4,1,1C25,49.6,24.6,50,24,50L24,50z M12,6h4c0.6,0,1-0.4,1-1V3c0-0.6,0.4-1,1-1h6c0.6,0,1,0.4,1,1v2c0,0.6,0.4,1,1,1
	l4,0l0,7H12V8V6z M37,7h-5V6c0-1.1-0.9-2-2-2h-3V3c0-1.6-1.3-3-3-3h-6c-1.7,0-3,1.3-3,3v1h-3c-1.1,0-2,0.9-2,2v1H5c-2.8,0-5,2.2-5,5
	v43c0,2.8,2.2,5,5,5h32c2.8,0,5-2.2,5-5V12C42,9.3,39.8,7,37,7L37,7z"/>
</svg>
